<svg xmlns="http://www.w3.org/2000/svg" xmlns:xlink="http://www.w3.org/1999/xlink" width="65.068" height="71.71" viewBox="0 0 65.068 71.71">
  <defs>
    <clipPath id="clip-path">
      <rect id="Rect치ngulo_12410" data-name="Rect치ngulo 12410" width="65.068" height="71.71" fill="#00215b"/>
    </clipPath>
  </defs>
  <g id="Grupo_29921" data-name="Grupo 29921" transform="translate(-302 -216.145)">
    <rect id="Rect치ngulo_12411" data-name="Rect치ngulo 12411" width="41" height="27" rx="3" transform="translate(306 248)" fill="#25c7d9"/>
    <path id="Trazado_62265" data-name="Trazado 62265" d="M347.59,220.2V233.41l2.289,1.978H363.99Z" fill="#25c7d9"/>
    <g id="Grupo_29920" data-name="Grupo 29920" transform="translate(302 216.145)">
      <g id="Grupo_29919" data-name="Grupo 29919" clip-path="url(#clip-path)">
        <path id="Trazado_62264" data-name="Trazado 62264" d="M65.042,19.681v0a1.3,1.3,0,0,0-.116-.325c-.013-.027-.026-.052-.041-.077a1.3,1.3,0,0,0-.21-.284L46.076.393a1.331,1.331,0,0,0-.284-.211c-.025-.014-.05-.028-.076-.04A1.332,1.332,0,0,0,45.127,0H18.408a6.651,6.651,0,0,0-6.643,6.643V32.465H3.842A3.846,3.846,0,0,0,0,36.307V58.794a3.846,3.846,0,0,0,3.842,3.842h7.923v2.43a6.651,6.651,0,0,0,6.643,6.643H58.425a6.651,6.651,0,0,0,6.643-6.643V19.941a1.334,1.334,0,0,0-.026-.26M60.486,18.6H50.429A3.963,3.963,0,0,1,46.47,14.64V4.583l7.008,7.008Zm-57.8,40.2V36.307a1.16,1.16,0,0,1,1.158-1.158H42.627a1.16,1.16,0,0,1,1.158,1.158V58.794a1.16,1.16,0,0,1-1.158,1.158H3.842a1.16,1.16,0,0,1-1.158-1.158m55.74,10.231H18.408a3.963,3.963,0,0,1-3.959-3.959v-2.43H42.627a3.846,3.846,0,0,0,3.842-3.842V36.307a3.846,3.846,0,0,0-3.842-3.842H14.449V6.643a3.963,3.963,0,0,1,3.959-3.959H43.785V14.64a6.651,6.651,0,0,0,6.643,6.643H62.384V65.067a3.963,3.963,0,0,1-3.959,3.959" fill="#00215b"/>
      </g>
    </g>
    <text id="_.CSV" data-name=".CSV" transform="translate(313 267)" fill="#f7f8fa" font-size="11" font-family="SegoeUI, Segoe UI"><tspan x="0" y="0">.CSV</tspan></text>
  </g>
</svg>
