<svg width="30" height="30" viewBox="0 0 30 30" fill="none" xmlns="http://www.w3.org/2000/svg">
<path d="M5.03288 26.8029H11.2049C11.2129 26.6709 11.2249 26.5509 11.2249 26.4289C11.2249 24.3449 11.2209 22.2609 11.2269 20.1769C11.2329 18.3069 12.3909 16.7949 14.1429 16.3389C16.4429 15.7409 18.7729 17.3989 18.9469 19.7609C18.9709 20.0989 18.9689 20.4389 18.9689 20.7789C18.9689 22.6589 18.9689 24.5409 18.9689 26.4209V26.7909H25.1609V26.4369C25.1609 22.5009 25.1609 18.5649 25.1609 14.6289C25.1609 14.0649 25.4709 13.7169 25.9549 13.7289C26.3229 13.7369 26.6229 13.9889 26.6849 14.3549C26.7069 14.4789 26.7089 14.6049 26.7089 14.7309C26.7089 18.9389 26.7089 23.1449 26.7089 27.3529C26.7089 27.4309 26.7089 27.5089 26.7049 27.5849C26.6669 28.0649 26.3729 28.3529 25.8929 28.3549C23.3429 28.3589 20.7909 28.3589 18.2409 28.3549C17.7109 28.3549 17.4169 28.0389 17.4169 27.4829C17.4169 25.0389 17.4209 22.5969 17.4149 20.1529C17.4109 18.8449 16.4569 17.8249 15.1989 17.7669C13.8709 17.7069 12.7749 18.7529 12.7709 20.1149C12.7629 22.4989 12.7689 24.8849 12.7689 27.2689C12.7689 27.3569 12.7689 27.4429 12.7689 27.5309C12.7589 28.0389 12.4589 28.3529 11.9549 28.3529C9.40488 28.3569 6.85288 28.3569 4.30288 28.3529C3.80688 28.3529 3.51288 28.0629 3.48088 27.5649C3.47488 27.4689 3.47688 27.3709 3.47688 27.2749C3.47688 23.1169 3.47688 18.9569 3.47688 14.7989C3.47688 14.6529 3.47688 14.5069 3.49888 14.3649C3.56088 13.9749 3.88488 13.7169 4.27888 13.7289C4.66688 13.7409 4.97888 14.0249 5.01888 14.4149C5.03088 14.5309 5.02488 14.6469 5.02488 14.7629C5.02488 18.6509 5.02488 22.5369 5.02488 26.4249V26.8029H5.03288Z" fill="#992740"/>
<path d="M29.997 12.949C29.983 13.217 29.857 13.459 29.585 13.601C29.291 13.755 29.005 13.717 28.739 13.523C28.059 13.025 27.377 12.529 26.697 12.031C22.913 9.26104 19.127 6.49304 15.347 3.71504C15.153 3.57304 15.039 3.58304 14.853 3.71904C10.435 6.95704 6.017 10.191 1.597 13.421C1.451 13.527 1.285 13.629 1.115 13.673C0.789001 13.759 0.443001 13.573 0.289001 13.271C0.127001 12.955 0.183001 12.583 0.467001 12.347C0.749001 12.111 1.055 11.903 1.351 11.687C5.721 8.48704 10.091 5.28904 14.463 2.08904C14.989 1.70304 15.213 1.70504 15.741 2.08904C20.339 5.45304 24.937 8.81904 29.537 12.183C29.791 12.369 29.991 12.577 29.997 12.949Z" fill="#992740"/>
</svg>
