<svg width="30" height="30" viewBox="0 0 30 30" fill="none" xmlns="http://www.w3.org/2000/svg">
<path d="M5.1622 5.18421C4.4382 5.18421 3.7582 5.13821 3.0862 5.19621C2.2082 5.27021 1.5822 5.93021 1.4622 6.80021C1.4482 6.89621 1.4382 6.99221 1.4382 7.09021C1.4382 12.4242 1.4342 17.7582 1.4382 23.0942C1.4382 24.0162 1.9762 24.7382 2.8142 24.9582C3.0362 25.0162 3.2742 25.0322 3.5042 25.0322C6.2402 25.0362 8.9742 25.0362 11.7102 25.0362C11.8162 25.0362 11.9242 25.0342 12.0302 25.0422C12.3762 25.0702 12.6062 25.3162 12.6062 25.6502C12.6062 25.9802 12.3722 26.2362 12.0362 26.2702C11.9502 26.2782 11.8622 26.2742 11.7742 26.2742C9.0102 26.2742 6.2462 26.2742 3.4822 26.2742C1.5222 26.2722 0.200195 24.9502 0.200195 22.9882C0.200195 17.7322 0.200195 12.4742 0.200195 7.21821C0.200195 5.23821 1.5162 3.92621 3.5022 3.92421C4.0442 3.92421 4.5842 3.92421 5.1622 3.92421C5.1622 3.71821 5.1562 3.53821 5.1622 3.35821C5.1802 2.92821 5.4102 2.69621 5.8382 2.69021C6.3822 2.68221 6.9242 2.68221 7.4682 2.69021C7.6402 2.69421 7.71819 2.64421 7.7702 2.46821C8.1682 1.11021 9.3602 0.204209 10.7402 0.200209C12.1282 0.196209 13.3222 1.08221 13.7302 2.43821C13.7882 2.63221 13.8662 2.69621 14.0682 2.69021C14.5822 2.67621 15.0962 2.68221 15.6102 2.68621C16.1222 2.69021 16.3322 2.90021 16.3382 3.41221C16.3402 3.56621 16.3382 3.72021 16.3382 3.92221C16.4762 3.92221 16.5982 3.91821 16.7182 3.92221C17.4442 3.94621 18.1862 3.88421 18.8902 4.01821C20.3262 4.28821 21.2962 5.54621 21.3082 7.06421C21.3262 9.49821 21.3142 11.9322 21.3122 14.3682C21.3122 14.8142 21.0642 15.0942 20.6922 15.0962C20.3102 15.0982 20.0622 14.8142 20.0622 14.3482C20.0602 11.9322 20.0622 9.51821 20.0602 7.10221C20.0602 6.16621 19.5142 5.42221 18.6642 5.23221C18.3282 5.15821 17.9722 5.17221 17.6242 5.16221C17.2102 5.15221 16.7942 5.16021 16.3382 5.16021C16.3382 5.38021 16.3422 5.57021 16.3382 5.76221C16.3142 6.86021 15.5282 7.64421 14.4322 7.64621C11.9882 7.65021 9.5442 7.65021 7.1002 7.64621C5.9882 7.64621 5.1942 6.86221 5.1642 5.75221C5.1602 5.56821 5.1642 5.38621 5.1642 5.18221L5.1622 5.18421ZM6.4442 3.92421C6.4282 3.98221 6.4202 4.00021 6.4182 4.01821C6.4162 4.53221 6.4142 5.04421 6.4142 5.55821C6.4142 6.22021 6.6022 6.41021 7.2582 6.41021C9.5842 6.41021 11.9102 6.41021 14.2342 6.41021C14.2822 6.41021 14.3302 6.41021 14.3802 6.41021C14.8562 6.39621 15.0942 6.16221 15.0982 5.69021C15.1022 5.17621 15.0982 4.66221 15.0982 4.15021C15.0982 4.07821 15.0842 4.00421 15.0762 3.92421C14.4802 3.92421 13.9082 3.92621 13.3382 3.92421C12.8722 3.92221 12.6542 3.70821 12.6062 3.24221C12.5862 3.05221 12.5622 2.85621 12.4982 2.67621C12.2142 1.86421 11.3902 1.35021 10.5642 1.45421C9.6202 1.57421 8.9942 2.23421 8.8942 3.21621C8.8382 3.75221 8.6482 3.92421 8.1082 3.92421C7.5582 3.92421 7.0062 3.92421 6.4442 3.92421Z" fill="#992740"/>
<path d="M30.0004 17.9546C29.9904 18.5286 29.7584 18.9846 29.3604 19.3806C27.4304 21.3026 25.5064 23.2306 23.5804 25.1566C22.3604 26.3766 21.1444 27.6026 19.9144 28.8106C19.7584 28.9626 19.5324 29.0846 19.3204 29.1306C17.9384 29.4266 16.5504 29.6966 15.1644 29.9726C14.6304 30.0786 14.2664 29.7166 14.3724 29.1846C14.6524 27.7806 14.9284 26.3746 15.2224 24.9706C15.2604 24.7926 15.3604 24.6026 15.4884 24.4726C18.6564 21.2926 21.8304 18.1186 25.0064 14.9466C25.8184 14.1346 26.9304 14.1366 27.7504 14.9426C28.3104 15.4926 28.8604 16.0526 29.4164 16.6066C29.7904 16.9806 29.9864 17.4286 29.9984 17.9486L30.0004 17.9546ZM15.7684 28.5566C15.8784 28.5486 15.9364 28.5506 15.9904 28.5386C16.9684 28.3446 17.9484 28.1526 18.9244 27.9486C19.0204 27.9286 19.1164 27.8586 19.1884 27.7866C22.2904 24.6886 25.3904 21.5906 28.4904 18.4886C28.8524 18.1266 28.8484 17.8026 28.4844 17.4326C27.9864 16.9286 27.4844 16.4306 26.9844 15.9286C26.5244 15.4686 26.2444 15.4686 25.7844 15.9286C22.8904 18.8226 20.0044 21.7246 17.0924 24.6006C16.6244 25.0626 16.3164 25.5426 16.2284 26.2026C16.1244 26.9766 15.9324 27.7386 15.7724 28.5506L15.7684 28.5566Z" fill="#992740"/>
<path d="M10.7644 10.1369C12.7424 10.1369 14.7204 10.1369 16.7004 10.1369C16.8064 10.1369 16.9144 10.1349 17.0204 10.1449C17.3404 10.1749 17.5784 10.4309 17.5844 10.7429C17.5904 11.0389 17.3724 11.3069 17.0724 11.3629C16.9964 11.3769 16.9184 11.3749 16.8404 11.3749C12.7864 11.3749 8.73237 11.3749 4.67837 11.3749C4.56437 11.3749 4.44437 11.3649 4.33637 11.3289C4.06437 11.2369 3.90237 10.9729 3.93037 10.6949C3.96037 10.4049 4.18437 10.1769 4.48037 10.1469C4.58637 10.1369 4.69437 10.1389 4.80037 10.1389C6.78837 10.1389 8.77637 10.1389 10.7644 10.1389V10.1369Z" fill="#992740"/>
<path d="M10.7345 15.1005C8.72655 15.1005 6.71855 15.1005 4.71255 15.0985C4.57855 15.0985 4.43855 15.0885 4.31455 15.0445C4.04655 14.9485 3.89255 14.6685 3.93255 14.3945C3.97255 14.1165 4.19255 13.9025 4.47655 13.8705C4.57255 13.8605 4.67055 13.8625 4.76655 13.8625C8.75255 13.8625 12.7385 13.8625 16.7245 13.8625C17.2925 13.8625 17.5945 14.0845 17.5845 14.4925C17.5745 14.8945 17.2825 15.1005 16.7285 15.1005C14.7305 15.1005 12.7325 15.1005 10.7345 15.1005Z" fill="#992740"/>
<path d="M10.7608 17.5869C12.7108 17.5869 14.6588 17.5869 16.6088 17.5869C16.6968 17.5869 16.7828 17.5869 16.8708 17.5869C17.3088 17.5949 17.5948 17.8469 17.5848 18.2169C17.5748 18.5789 17.2968 18.8249 16.8748 18.8249C12.7908 18.8249 8.70876 18.8249 4.62476 18.8249C4.20876 18.8249 3.92876 18.5689 3.92676 18.2069C3.92676 17.8409 4.19676 17.5909 4.62076 17.5889C6.66676 17.5849 8.71276 17.5889 10.7608 17.5889V17.5869Z" fill="#992740"/>
</svg>
