<svg width="30" height="30" viewBox="0 0 30 30" fill="none" xmlns="http://www.w3.org/2000/svg">
<path d="M4.49757 10.0439C5.88322 8.39748 7.2629 6.75906 8.65451 5.10473C8.07004 4.37499 7.84539 3.54982 8.00244 2.6451C8.11178 2.00882 8.40999 1.45804 8.89109 1.01662C9.94076 0.0582243 11.3562 -0.0690318 12.563 0.696493C13.5033 1.295 14.384 2.76838 13.5868 4.55196C13.8671 4.76273 14.1514 4.97747 14.4377 5.19023C15.1673 5.73703 15.8949 6.28383 16.6245 6.83064C16.7338 6.91415 16.8153 6.98175 16.9704 6.86245C18.2865 5.85037 19.7894 5.9299 21.0021 7.06527C21.0299 7.09111 21.0617 7.11299 21.0995 7.14281C21.1611 7.111 21.2227 7.08515 21.2784 7.04936C22.1412 6.51051 23.002 5.96768 23.8708 5.43679C24.0239 5.34333 24.0497 5.26181 23.994 5.08882C23.4772 3.46034 24.3877 1.76823 26.0178 1.30693C27.6242 0.853575 29.2881 1.82589 29.7096 3.46431C30.0356 4.73489 29.4591 6.06312 28.2762 6.76502C27.2047 7.39931 25.7216 7.22036 24.7992 6.34547C24.7376 6.28582 24.672 6.23015 24.5904 6.15658C24.0199 6.5125 23.4553 6.86643 22.8907 7.21837C22.5368 7.43908 22.1869 7.66576 21.8291 7.87652C21.68 7.96401 21.6422 8.04554 21.6959 8.22449C22.2923 10.187 20.9385 12.064 18.9007 12.1177C16.8412 12.1714 15.3283 9.99216 16.1096 8.0853C16.209 7.84073 16.1732 7.72342 15.9625 7.57031C15.0301 6.89228 14.1096 6.19635 13.1932 5.49644C13.0321 5.37316 12.9367 5.37316 12.7737 5.49843C11.8135 6.24009 10.7698 6.35542 9.66045 5.86031C9.52526 5.80066 9.42189 5.73305 9.2867 5.8961C7.97064 7.47487 6.64463 9.04569 5.32061 10.6185C5.30272 10.6404 5.29278 10.6682 5.26892 10.712C5.8534 11.4556 6.08003 12.3007 5.8872 13.2392C5.73809 13.959 5.35043 14.5336 4.77589 14.9929C3.72622 15.8261 2.06424 15.7803 1.04041 14.8756C-0.100709 13.8695 -0.323366 12.2887 0.5116 10.9784C1.17361 9.93648 2.74215 9.14909 4.50155 10.0439H4.49757ZM24.8409 4.18808C24.8489 5.28567 25.7375 6.16254 26.8309 6.1526C27.9224 6.14266 28.813 5.24391 28.8031 4.16224C28.7931 3.08255 27.8727 2.17187 26.8031 2.18778C25.7097 2.20567 24.833 3.09845 24.8409 4.18808ZM4.9568 12.6228C4.96078 11.5332 4.07412 10.6384 2.98668 10.6324C1.91116 10.6265 1.00065 11.5312 0.994688 12.6128C0.988724 13.6945 1.88333 14.5913 2.97475 14.5972C4.06418 14.6032 4.95482 13.7184 4.9568 12.6248V12.6228ZM10.9149 5.1604C12.0003 5.16835 12.8969 4.28551 12.9128 3.1939C12.9287 2.12614 12.0182 1.20751 10.9368 1.19756C9.85528 1.18762 8.95868 2.0804 8.95073 3.17202C8.94278 4.26762 9.8175 5.15245 10.9149 5.1604ZM18.861 7.16667C17.7696 7.17463 16.875 8.07337 16.8849 9.15306C16.8948 10.2347 17.8153 11.1454 18.8809 11.1295C19.9743 11.1136 20.855 10.2208 20.847 9.13318C20.8411 8.03559 19.9544 7.15872 18.861 7.16667Z" fill="#992740"/>
<path d="M23.8389 22.1969C23.8389 19.8904 23.8389 17.5819 23.8389 15.2753C23.8389 14.4343 24.2166 13.8815 24.9184 13.6767C25.0019 13.6528 25.0894 13.6329 25.1748 13.631C26.2603 13.627 27.3458 13.5932 28.4292 13.6369C29.2304 13.6687 29.7652 14.2911 29.797 15.0984C29.801 15.1759 29.797 15.2535 29.797 15.331C29.797 19.9659 29.797 24.5988 29.797 29.2337C29.797 29.8621 29.6598 29.9973 29.0256 29.9973C27.5227 29.9973 26.0198 29.9973 24.5168 29.9973C23.9979 29.9973 23.8369 29.8402 23.8369 29.3212C23.8369 26.9451 23.8369 24.571 23.8369 22.1949L23.8389 22.1969ZM28.795 28.9912C28.801 28.9176 28.805 28.8798 28.805 28.842C28.805 24.3066 28.805 19.7691 28.805 15.2336C28.805 14.7942 28.628 14.6112 28.1887 14.6072C27.306 14.5993 26.4253 14.6033 25.5426 14.6072C24.98 14.6072 24.8369 14.7504 24.8369 15.3131C24.8369 19.7711 24.8369 24.231 24.8369 28.6889C24.8369 28.7903 24.8468 28.8917 24.8508 28.9932H28.793L28.795 28.9912Z" fill="#992740"/>
<path d="M7.94922 22.694C7.94922 20.5506 7.94922 18.4071 7.94922 16.2636C7.94922 15.4225 8.32694 14.8658 9.03468 14.6729C9.21956 14.6232 9.41637 14.6073 9.60921 14.6073C10.482 14.6013 11.3547 14.6013 12.2274 14.6053C13.3188 14.6093 13.9073 15.2078 13.9073 16.3074C13.9073 20.6241 13.9073 24.9409 13.9073 29.2557C13.9073 29.8522 13.7622 29.9993 13.1737 29.9993C11.6807 29.9993 10.1857 29.9993 8.69274 29.9993C8.08242 29.9993 7.94922 29.8641 7.94922 29.2418C7.94922 27.0585 7.94922 24.8773 7.94922 22.694ZM12.9034 28.9912C12.9073 28.9077 12.9153 28.8421 12.9153 28.7765C12.9153 24.5969 12.9153 20.4154 12.9153 16.2358C12.9153 15.7804 12.7383 15.6055 12.2771 15.6035C11.4044 15.5995 10.5317 15.6015 9.65891 15.6035C9.0804 15.6035 8.9472 15.7407 8.9472 16.3292C8.9472 20.4412 8.9472 24.5532 8.9472 28.6651V28.9912H12.9053H12.9034Z" fill="#992740"/>
<path d="M21.8491 24.2028C21.8491 25.889 21.8491 27.5771 21.8491 29.2632C21.8491 29.8597 21.7099 29.9989 21.1135 29.9989C19.6007 29.9989 18.0898 29.9989 16.5769 29.9989C16.06 29.9989 15.891 29.8339 15.891 29.3249C15.891 25.9506 15.889 22.5783 15.891 19.204C15.891 18.2019 16.4994 17.5934 17.5033 17.5875C18.4138 17.5815 19.3263 17.5815 20.2368 17.5875C21.2428 17.5934 21.8431 18.19 21.8471 19.2001C21.8531 20.8663 21.8471 22.5346 21.8471 24.2028H21.8491ZM20.8352 28.9948C20.8412 28.9033 20.8511 28.8357 20.8511 28.7701C20.8511 25.5827 20.8511 22.3934 20.8511 19.206C20.8511 18.7447 20.6841 18.5856 20.213 18.5837C19.3502 18.5817 18.4874 18.5837 17.6266 18.5837C17.0302 18.5837 16.885 18.7268 16.885 19.3154C16.885 22.4351 16.885 25.5569 16.885 28.6767V28.9968H20.8392L20.8352 28.9948Z" fill="#992740"/>
<path d="M5.95698 26.1834C5.95698 27.2293 5.95698 28.2772 5.95698 29.3231C5.95698 29.842 5.79595 29.9991 5.27907 29.9991C3.74829 29.9991 2.21752 29.9991 0.684761 29.9991C0.169865 29.9991 0.000883563 29.8341 0.000883563 29.325C0.000883563 27.281 -0.00110445 25.235 0.000883563 23.1909C0.000883563 22.1729 0.613192 21.5604 1.62907 21.5584C2.53958 21.5565 3.45009 21.5545 4.36259 21.5584C5.33075 21.5624 5.94505 22.1629 5.95499 23.1313C5.96692 24.1493 5.95698 25.1654 5.95698 26.1834ZM4.9411 28.995C4.94906 28.9353 4.959 28.9075 4.959 28.8777C4.959 26.9569 4.96297 25.0361 4.959 23.1153C4.959 22.7316 4.77013 22.5546 4.37452 22.5526C3.4819 22.5467 2.58928 22.5506 1.69666 22.5526C1.14996 22.5526 0.992903 22.7117 0.992903 23.2685C0.992903 25.0819 0.992903 26.8972 0.992903 28.7106C0.992903 28.8041 1.00086 28.8976 1.00682 28.995H4.9411Z" fill="#992740"/>
</svg>
