<svg width="108" height="52" viewBox="0 0 108 52" fill="none" xmlns="http://www.w3.org/2000/svg">
<g clip-path="url(#clip0_268_173)">
<path d="M9.75765 14.7102C9.75765 12.9021 9.45116 11.5071 9.23185 10.6991L13.499 10.2622L13.8266 10.5885C13.6285 11.8308 13.6285 14.6865 13.6523 17.0395C12.6456 17.4106 10.5028 18.1292 7.70202 18.1292C2.95398 18.1318 0 15.1892 0 10.2859C0 5.3825 3.84969 2.22412 8.59772 2.22412C10.7855 2.22412 12.6879 2.8558 14.0248 3.66381C13.7844 4.70871 13.3035 6.73796 13.0842 7.71706C11.8159 6.82482 9.67046 6.0168 7.68088 6.0168C6.52095 6.0168 5.58033 6.23526 4.9462 6.51688C4.39927 7.34595 4.0505 8.5435 4.0505 9.95951C4.0505 12.9442 5.53805 14.9497 7.92396 14.9497C8.66642 14.9497 9.23714 14.8629 9.76029 14.7102" fill="#625D5E"/>
<path d="M22.0755 18.1317C18.4662 18.1317 16.1252 15.8445 16.1252 12.2256C16.1252 8.6066 18.7278 6.03516 22.3608 6.03516C25.9939 6.03516 28.2027 8.34603 28.2027 11.9834C28.2027 15.6208 25.8618 18.1291 22.0781 18.1291L22.0755 18.1317ZM22.2102 9.08562C20.5694 9.08562 19.7371 10.4358 19.7371 12.2229C19.7371 14.0101 20.6566 15.405 22.2763 15.405C23.896 15.405 24.5961 14.118 24.5961 12.1782C24.5961 10.2384 23.851 9.08299 22.2102 9.08299" fill="#625D5E"/>
<path d="M34.2165 8.76194C34.7846 7.49859 36.2061 6.03785 38.1983 6.03785C40.7797 6.03785 42.5738 8.13027 42.5738 11.8335C42.5738 15.7788 39.9474 18.1318 36.1189 18.1318C33.8651 18.1318 32.3352 17.7396 30.3879 17.0421L30.6072 14.9708V6.14576C30.6072 4.86135 30.3219 2.72418 30.0603 1.56875L34.2165 0.916016V8.76194ZM34.2165 9.37256V14.8866C34.8718 15.105 35.4847 15.1919 36.0317 15.1919C37.979 15.1919 38.7452 14.0575 38.7452 12.0309C38.7452 10.2437 37.8918 9.08831 35.9894 9.08831C35.3976 9.08831 34.6974 9.21991 34.2165 9.37256Z" fill="#625D5E"/>
<path d="M49.0288 17.8055H44.981C45.1765 16.0632 45.2003 14.4287 45.2003 12.4442C45.2003 9.93854 44.9149 8.06457 44.6533 6.79859L48.8095 6.03532V12.3994C48.8095 14.4261 48.8095 16.1684 49.0288 17.8029V17.8055ZM44.6982 2.32949C44.6982 1.10825 45.66 -0.00244141 46.9732 -0.00244141C48.2863 -0.00244141 49.0737 0.913487 49.0737 2.13473C49.0737 3.44282 48.1542 4.46666 46.8199 4.46666C45.6389 4.46666 44.6982 3.50862 44.6982 2.33212" fill="#625D5E"/>
<path d="M57.822 18.1318C53.7742 18.1318 51.2588 15.9736 51.2588 12.2046C51.2588 8.43557 53.9723 6.03784 57.3411 6.03784C60.2502 6.03784 62.3719 7.69336 62.3719 11.0491C62.3719 11.486 62.3058 12.3362 62.1737 12.902L55.1508 13.0994C55.4572 14.5154 56.6383 15.4103 58.4984 15.4103C59.986 15.4103 61.2331 14.9734 62.0865 14.5391L61.6479 17.5896C60.6624 17.8738 59.3069 18.1344 57.8194 18.1344L57.822 18.1318ZM55.0847 11.6834L58.8472 11.3571C58.8683 11.1834 58.8683 10.9438 58.8683 10.7675C58.8683 9.61207 58.4958 8.76194 57.2936 8.76194C56.0015 8.76194 55.0847 9.98318 55.0847 11.5518V11.6834Z" fill="#625D5E"/>
<path d="M64.8899 17.8054C65.0643 16.3236 65.1092 14.5154 65.1092 12.7941V12.4678C65.1092 9.96212 64.8238 8.06447 64.5623 6.80112L68.589 6.03784V9.37256L68.7211 9.41467C69.3552 7.64861 70.3407 6.03784 71.7834 6.03784C72.1771 6.03784 72.5708 6.16944 72.8561 6.36421L72.1771 10.5043C71.1043 10.1779 69.704 9.95949 68.7211 10.0253V12.7941C68.7211 14.5812 68.7211 16.3894 68.9404 17.8054H64.8925H64.8899Z" fill="#625D5E"/>
<path d="M74.8218 17.8054C74.9962 16.3236 75.0411 14.5154 75.0411 12.7941C75.0411 10.1358 74.7557 8.06447 74.4941 6.80112L78.5209 6.03784V9.1541L78.653 9.19885C79.4853 7.10643 80.994 6.03784 82.6348 6.03784C84.516 6.03784 86.0247 7.23539 86.0247 9.50416V12.7941C86.0247 14.5812 86.0247 16.4105 86.244 17.8054H82.4155V11.2886C82.4155 10.0911 81.9346 9.52258 80.5342 9.52258C79.9001 9.52258 79.155 9.63049 78.653 9.80683V12.7915C78.653 14.5786 78.653 16.4078 78.8723 17.8028H74.8244L74.8218 17.8054Z" fill="#625D5E"/>
<path d="M94.3794 18.1317C90.7702 18.1317 88.4292 15.8445 88.4292 12.2256C88.4292 8.6066 91.0318 6.03516 94.6648 6.03516C98.2978 6.03516 100.507 8.34603 100.507 11.9834C100.507 15.6208 98.1657 18.1291 94.3794 18.1291V18.1317ZM94.5116 9.08562C92.8707 9.08562 92.0384 10.4358 92.0384 12.2229C92.0384 14.0101 92.9579 15.405 94.5776 15.405C96.1973 15.405 96.8975 14.118 96.8975 12.1782C96.8975 10.2384 96.1524 9.08299 94.5116 9.08299" fill="#625D5E"/>
<path d="M34.4622 37.9926C34.6154 36.474 34.6815 34.171 34.6815 30.5231C34.6815 26.8752 34.5731 24.4222 34.4622 23.2272C36.0105 23.0088 38.1454 22.793 40.3463 22.793C44.6399 22.793 46.9941 24.6169 46.9941 28.1991C46.9941 31.7812 44.6848 33.7578 41.1311 33.7578C39.9764 33.7578 39.234 33.7367 38.4942 33.6499C38.4942 35.516 38.5364 36.6688 38.6025 37.9926H34.4622ZM40.3041 25.6829C39.6065 25.6829 38.9962 25.7487 38.4942 25.8355V30.8284C39.1468 30.9363 39.8892 31.0021 40.4547 31.0021C41.0862 31.0021 41.6965 30.8942 42.1774 30.7205C42.505 30.2204 42.83 29.4624 42.83 28.3543C42.83 26.4883 41.892 25.6829 40.3014 25.6829" fill="#625D5E"/>
<path d="M56.8469 31.5863C56.8469 29.307 56.6514 28.1332 56.3026 26.9172L60.4429 26.2671V31.9127C60.4429 35.408 60.5513 36.2976 60.8789 37.5583L57.1957 38.3189C57.1085 37.5162 57.0213 36.7976 56.979 35.6475L56.8469 35.6053C55.9961 37.4504 54.5376 38.3189 52.9021 38.3189C51.005 38.3189 49.5016 37.124 49.5016 34.8658V31.5863C49.5016 29.7834 49.2823 28.199 48.9573 27.0277L53.0976 26.2671V33.3892C53.0976 34.671 53.5996 35.279 55.0158 35.279C55.6262 35.279 56.3449 35.1711 56.8469 34.9974V31.5889V31.5863Z" fill="#625D5E"/>
<path d="M69.4872 38.319C65.4552 38.319 62.9478 36.1686 62.9478 32.4128C62.9478 28.657 65.6507 26.2698 69.0063 26.2698C71.9048 26.2698 74.0186 27.92 74.0186 31.2626C74.0186 31.6969 73.9525 32.5444 73.8231 33.1077L66.8265 33.3024C67.1304 34.7132 68.3088 35.6028 70.161 35.6028C71.6432 35.6028 72.8851 35.1685 73.7359 34.7342L73.2999 37.7742C72.3196 38.0558 70.9668 38.3163 69.4846 38.3163L69.4872 38.319ZM66.7604 31.8891L70.5097 31.5627C70.5309 31.389 70.5309 31.1495 70.5309 30.9758C70.5309 29.8256 70.161 28.9781 68.9614 28.9781C67.6747 28.9781 66.7604 30.1941 66.7604 31.7575V31.8891Z" fill="#625D5E"/>
<path d="M80.3415 28.9806C80.9095 27.7225 82.3257 26.267 84.3074 26.267C86.8783 26.267 88.667 28.3516 88.667 32.0416C88.667 35.9711 86.0513 38.3162 82.2359 38.3162C79.99 38.3162 78.4655 37.9267 76.5261 37.2319L76.7428 35.1684V26.3749C76.7428 25.0932 76.4601 22.9665 76.1985 21.8164L80.3388 21.1663V28.9832L80.3415 28.9806ZM80.3415 29.5886V35.0815C80.9967 35.3 81.6044 35.3868 82.1514 35.3868C84.0907 35.3868 84.8543 34.2577 84.8543 32.239C84.8543 30.4598 84.0035 29.307 82.1091 29.307C81.5199 29.307 80.8223 29.4359 80.3441 29.5886" fill="#625D5E"/>
<path d="M91.066 26.4855C91.066 24.8563 90.8256 22.9902 90.5217 21.8164L94.6621 21.1663V32.6075C94.6621 34.6262 94.6621 36.3633 94.8814 37.9925H90.8494C91.0449 36.2554 91.066 34.6262 91.066 32.5864V26.4855Z" fill="#625D5E"/>
<path d="M103.968 31.6732V30.8494C103.968 29.8518 103.598 29.307 102.552 29.307C101.048 29.307 99.3706 30.1545 98.2133 31.131C98.0178 30.394 97.669 28.4385 97.669 27.5699C98.9769 26.8961 101.178 26.2671 103.313 26.2671C106.19 26.2671 107.694 27.8305 107.694 30.1098C107.694 31.6521 107.585 32.9102 107.585 34.1472C107.585 35.5369 107.694 36.3844 108 37.5556L104.317 38.3163L104.1 36.2528L103.968 36.2081C103.292 37.3819 102.182 38.3137 100.393 38.3137C98.6043 38.3137 97.167 37.2924 97.167 35.3816C97.167 32.4075 100.959 31.7548 103.968 31.6679V31.6732ZM102.158 35.8791C102.835 35.8791 103.511 35.7264 103.968 35.5975V33.2102C102.552 33.2313 100.7 33.5156 100.7 34.7078C100.7 35.4895 101.289 35.8817 102.161 35.8817" fill="#625D5E"/>
<path d="M12.6721 21.1033V30.6916C12.6721 34.3737 12.8042 36.1608 13.1107 37.5558L9.41423 38.319L9.19493 35.6397L9.06282 35.5949C8.40755 37.2742 7.26876 38.319 5.45357 38.319C2.851 38.319 0.792725 36.3793 0.792725 32.6313C0.792725 28.8834 3.28696 26.2251 6.91735 26.2251C7.74964 26.2251 8.38377 26.312 9.06282 26.5094V26.4436C9.06282 24.8091 8.82238 22.9351 8.51588 21.7586L12.6721 21.1059V21.1033ZM9.06282 29.5598C8.44983 29.3624 7.90289 29.2756 7.40087 29.2756C5.62795 29.2756 4.62128 30.3863 4.62128 32.4129C4.62128 34.1342 5.49584 35.2686 7.31368 35.2686C7.90553 35.2686 8.58194 35.137 9.06282 34.9843V29.5572V29.5598Z" fill="#625D5E"/>
<path d="M21.6423 38.319C17.5945 38.319 15.0791 36.1608 15.0791 32.3918C15.0791 28.6228 17.7926 26.2251 21.1614 26.2251C24.0705 26.2251 26.1922 27.8806 26.1922 31.2364C26.1922 31.6733 26.1261 32.5234 25.994 33.0893L18.9711 33.2867C19.2776 34.7027 20.4586 35.5976 22.3187 35.5976C23.8063 35.5976 25.0534 35.1607 25.9068 34.7264L25.4682 37.7769C24.4827 38.0611 23.1272 38.3217 21.6397 38.3217L21.6423 38.319ZM18.905 31.8707L22.6675 31.5443C22.6886 31.3706 22.6886 31.1311 22.6886 30.9548C22.6886 29.7993 22.3161 28.9492 21.1139 28.9492C19.8245 28.9492 18.905 30.1704 18.905 31.7391V31.8707Z" fill="#625D5E"/>
<path d="M5.87631 50.4313L6.20394 47.9598H3.67799L3.35036 50.4313H2.68188L3.41642 45.0752H4.07697L3.75726 47.3992H6.28321L6.60291 45.0752H7.27139L6.53686 50.4313H5.87631Z" fill="#625D5E"/>
<path d="M11.0682 50.0338C11.1343 50.0338 11.203 50.0259 11.306 49.9969L11.2611 50.4049C11.1501 50.4496 10.9704 50.4786 10.8225 50.4786C10.4658 50.4786 10.257 50.3312 10.265 49.939C9.94526 50.2865 9.4406 50.5233 8.94387 50.5233C8.22255 50.5233 7.70996 50.0943 7.70996 49.0521C7.70996 47.8019 8.29653 46.5596 9.57271 46.5596C10.0113 46.5596 10.3971 46.7596 10.6349 46.9675L10.693 46.6333H11.3166L10.878 49.7179C10.8489 49.9259 10.878 50.0364 11.0629 50.0364L11.0682 50.0338ZM9.61235 47.1123C8.68493 47.1123 8.39429 48.2282 8.39429 48.9915C8.39429 49.7548 8.67701 49.9838 9.12882 49.9838C9.48552 49.9838 9.80523 49.8574 10.265 49.4363L10.5398 47.4834C10.3469 47.2992 9.98225 47.1123 9.61235 47.1123Z" fill="#625D5E"/>
<path d="M11.9138 48.9151C11.9138 47.407 12.7831 46.5542 13.9932 46.5542C14.8995 46.5542 15.383 47.1832 15.2932 48.0413L14.6776 48.086C14.7066 47.4859 14.5507 47.0938 13.9192 47.0938C13.2878 47.0938 12.6193 47.507 12.6193 48.8835C12.6193 49.6968 13.0209 49.9863 13.5018 49.9863C14.0144 49.9863 14.379 49.7205 14.5428 49.1809L15.1294 49.2915C14.9127 50.1495 14.231 50.5206 13.4516 50.5206C12.3736 50.5206 11.9138 49.8626 11.9138 48.9151Z" fill="#625D5E"/>
<path d="M15.7529 48.8624C15.7529 47.6201 16.4954 46.5542 17.7954 46.5542C18.6276 46.5542 19.0213 46.999 19.0213 47.5386C19.0213 48.1755 18.5986 48.5361 18.0252 48.7151C17.4598 48.8914 16.7913 48.9282 16.4293 48.944C16.4373 49.4625 16.5641 49.9863 17.3515 49.9863C17.8931 49.9863 18.2049 49.6678 18.3238 49.2757L18.8813 49.402C18.6594 50.1574 18.0041 50.518 17.2484 50.518C16.1334 50.518 15.7556 49.7626 15.7556 48.8598L15.7529 48.8624ZM16.4584 48.4334C16.6354 48.4255 17.2616 48.3966 17.7663 48.2413C18.1388 48.1229 18.374 47.9228 18.374 47.5675C18.374 47.2332 18.1362 47.0648 17.7504 47.0648C16.971 47.0648 16.5535 47.7017 16.4584 48.4334Z" fill="#625D5E"/>
<path d="M19.4362 50.4313L19.9699 46.6281H20.5935L20.5116 47.2729C20.9053 46.836 21.2382 46.5623 21.7587 46.5623C21.8168 46.5623 21.8776 46.5623 21.9357 46.5702L21.838 47.236C21.3412 47.1913 20.9238 47.3992 20.4799 47.7835L20.1073 50.4313H19.4309H19.4362Z" fill="#625D5E"/>
<path d="M23.4997 50.4313L24.2871 44.8462H24.9556L24.6147 47.1544C24.9106 46.9018 25.4391 46.5543 26.0257 46.5543C26.7972 46.5543 27.1539 46.9834 27.035 47.8572L26.6783 50.4313H26.0019L26.3506 47.9309C26.4326 47.3545 26.2476 47.1176 25.8301 47.1176C25.3466 47.1176 24.9397 47.4071 24.5592 47.694L24.1735 50.4313H23.4971H23.4997Z" fill="#625D5E"/>
<path d="M27.6638 50.4312L28.1975 46.628H28.8739L28.3402 50.4312H27.6638ZM28.652 45.8805C28.3851 45.8805 28.2372 45.7331 28.2372 45.4884C28.2372 45.1409 28.4459 44.9409 28.7868 44.9409C29.0536 44.9409 29.2016 45.0804 29.2016 45.3331C29.2016 45.6726 28.9928 45.8805 28.652 45.8805Z" fill="#625D5E"/>
<path d="M32.404 47.7254L31.8333 47.807C31.8122 47.3859 31.6166 47.0437 31.0618 47.0437C30.4594 47.0437 30.2665 47.3254 30.2665 47.6201C30.2665 47.9834 30.5862 48.1229 30.964 48.2255C31.5427 48.3808 32.2111 48.5519 32.2111 49.3125C32.2111 50.0732 31.5876 50.518 30.6654 50.518C29.7433 50.518 29.3126 50.1179 29.2466 49.3652L29.8041 49.2388C29.8569 49.6678 30.0419 50.0152 30.7024 50.0152C31.104 50.0152 31.5479 49.881 31.5479 49.4099C31.5479 49.0098 31.1912 48.8782 30.7843 48.773C30.2506 48.6387 29.6271 48.4834 29.6271 47.707C29.6271 46.9306 30.3405 46.5542 31.075 46.5542C31.9813 46.5542 32.367 47.0569 32.404 47.7228V47.7254Z" fill="#625D5E"/>
<path d="M33.9998 50.5206C33.2732 50.5206 32.9218 50.1811 33.0354 49.4257L33.3631 47.1253H32.7686L32.8346 46.6305H33.4291L33.585 45.5356L34.2693 45.4382L34.1055 46.6279H35.1518L35.0858 47.1227H34.0395L33.7197 49.3494C33.6616 49.7494 33.7039 49.9995 34.1584 49.9995C34.4041 49.9995 34.6709 49.9021 34.8427 49.8073L34.9325 50.2811C34.7238 50.4074 34.3459 50.518 34.0051 50.518L33.9998 50.5206Z" fill="#625D5E"/>
<path d="M35.366 48.9757C35.366 48.8125 35.3739 48.6493 35.395 48.494C35.5509 47.3465 36.2485 46.5569 37.4665 46.5569C38.5657 46.5569 38.9594 47.2359 38.9594 48.1019C38.9594 48.265 38.9514 48.4124 38.9303 48.5835C38.7823 49.7811 38.0901 50.5206 36.9037 50.5206C35.8257 50.5206 35.366 49.9074 35.366 48.9757ZM38.2486 48.5309C38.2645 48.3835 38.2697 48.2413 38.2697 48.094C38.2697 47.4202 37.9659 47.0964 37.3872 47.0964C36.6976 47.0964 36.1903 47.5623 36.0714 48.5309C36.0556 48.6651 36.0503 48.8046 36.0503 48.9441C36.0503 49.6389 36.3541 50.01 36.9645 50.01C37.6488 50.01 38.1297 49.5231 38.2486 48.5309Z" fill="#625D5E"/>
<path d="M39.4958 50.4313L40.0295 46.6281H40.653L40.5711 47.2729C40.9648 46.836 41.2977 46.5623 41.8183 46.5623C41.8764 46.5623 41.9372 46.5623 41.9953 46.5702L41.8975 47.236C41.4008 47.1913 40.9833 47.3992 40.5394 47.7835L40.1669 50.4313H39.4905H39.4958Z" fill="#625D5E"/>
<path d="M42.0508 50.4312L42.5845 46.628H43.2609L42.7272 50.4312H42.0508ZM43.039 45.8805C42.7721 45.8805 42.6241 45.7331 42.6241 45.4884C42.6241 45.1409 42.8329 44.9409 43.1737 44.9409C43.4406 44.9409 43.5885 45.0804 43.5885 45.3331C43.5885 45.6726 43.3798 45.8805 43.039 45.8805Z" fill="#625D5E"/>
<path d="M47.137 50.0338C47.2031 50.0338 47.2718 50.0259 47.3748 49.9969L47.3299 50.4049C47.219 50.4496 47.0393 50.4786 46.8913 50.4786C46.5346 50.4786 46.3259 50.3312 46.3338 49.939C46.0141 50.2865 45.5095 50.5233 45.0127 50.5233C44.2914 50.5233 43.7788 50.0943 43.7788 49.0521C43.7788 47.8019 44.3654 46.5596 45.6416 46.5596C46.0802 46.5596 46.4659 46.7596 46.7037 46.9675L46.7619 46.6333H47.3854L46.9468 49.7179C46.9177 49.9259 46.9468 50.0364 47.1318 50.0364L47.137 50.0338ZM45.6812 47.1123C44.7538 47.1123 44.4631 48.2282 44.4631 48.9915C44.4631 49.7548 44.7459 49.9838 45.1977 49.9838C45.5544 49.9838 45.8741 49.8574 46.3338 49.4363L46.6086 47.4834C46.4157 47.2992 46.0511 47.1123 45.6812 47.1123Z" fill="#625D5E"/>
<path d="M48.2229 50.5208C47.9323 50.5208 47.7764 50.3866 47.7764 50.1208C47.7764 49.7496 47.9851 49.5522 48.3629 49.5522C48.6536 49.5522 48.8015 49.6917 48.8015 49.9523C48.8015 50.3234 48.6007 50.5208 48.2229 50.5208Z" fill="#625D5E"/>
<path d="M54.3053 50.4313L54.6329 47.9598H52.107L51.7793 50.4313H51.1108L51.8454 45.0752H52.5059L52.1862 47.3992H54.7122L55.0319 45.0752H55.7003L54.9658 50.4313H54.3053Z" fill="#625D5E"/>
<path d="M59.4945 50.0338C59.5605 50.0338 59.6292 50.0259 59.7323 49.9969L59.6873 50.4049C59.5764 50.4496 59.3967 50.4786 59.2487 50.4786C58.892 50.4786 58.6833 50.3312 58.6912 49.939C58.3715 50.2865 57.8669 50.5233 57.3701 50.5233C56.6488 50.5233 56.1362 50.0943 56.1362 49.0521C56.1362 47.8019 56.7228 46.5596 57.999 46.5596C58.4376 46.5596 58.8233 46.7596 59.0611 46.9675L59.1193 46.6333H59.7428L59.3042 49.7179C59.2752 49.9259 59.3042 50.0364 59.4892 50.0364L59.4945 50.0338ZM58.0386 47.1123C57.1112 47.1123 56.8206 48.2282 56.8206 48.9915C56.8206 49.7548 57.1033 49.9838 57.5551 49.9838C57.9118 49.9838 58.2315 49.8574 58.6912 49.4363L58.966 47.4834C58.7731 47.2992 58.4085 47.1123 58.0386 47.1123Z" fill="#625D5E"/>
<path d="M60.3428 48.9151C60.3428 47.407 61.2121 46.5542 62.4222 46.5542C63.3285 46.5542 63.812 47.1832 63.7221 48.0413L63.1065 48.086C63.1356 47.4859 62.9797 47.0938 62.3482 47.0938C61.7167 47.0938 61.0482 47.507 61.0482 48.8835C61.0482 49.6968 61.4499 49.9863 61.9307 49.9863C62.4433 49.9863 62.8079 49.7205 62.9718 49.1809L63.5583 49.2915C63.3417 50.1495 62.66 50.5206 61.8805 50.5206C60.8025 50.5206 60.3428 49.8626 60.3428 48.9151Z" fill="#625D5E"/>
<path d="M64.1819 48.8624C64.1819 47.6201 64.9243 46.5542 66.2243 46.5542C67.0566 46.5542 67.4503 46.999 67.4503 47.5386C67.4503 48.1755 67.0275 48.5361 66.4542 48.7151C65.8887 48.8914 65.2203 48.9282 64.8583 48.944C64.8662 49.4625 64.993 49.9863 65.7804 49.9863C66.3221 49.9863 66.6338 49.6678 66.7527 49.2757L67.3103 49.402C67.0883 50.1574 66.433 50.518 65.6774 50.518C64.5624 50.518 64.1845 49.7626 64.1845 48.8598L64.1819 48.8624ZM64.8874 48.4334C65.0644 48.4255 65.6906 48.3966 66.1952 48.2413C66.5678 48.1229 66.8029 47.9228 66.8029 47.5675C66.8029 47.2332 66.5652 47.0648 66.1794 47.0648C65.3999 47.0648 64.9825 47.7017 64.8874 48.4334Z" fill="#625D5E"/>
<path d="M67.8571 50.4313L68.3908 46.6281H69.0144L68.9325 47.2729C69.3262 46.836 69.6591 46.5623 70.1796 46.5623C70.2377 46.5623 70.2985 46.5623 70.3566 46.5702L70.2589 47.236C69.7621 47.1913 69.3447 47.3992 68.9008 47.7835L68.5282 50.4313H67.8518H67.8571Z" fill="#625D5E"/>
<path d="M72.5074 47.1255H71.942L72.0159 46.6306H72.5814L72.6712 45.9937C72.7822 45.1646 73.2446 44.7725 73.9553 44.7725C74.283 44.7725 74.534 44.8462 74.6449 44.9067L74.5472 45.4015C74.4071 45.3489 74.1984 45.3041 74.0187 45.3041C73.6779 45.3041 73.4163 45.4436 73.3423 45.9779L73.2525 46.628H74.3147L74.2407 47.1228H73.1785L72.4889 51.9972H71.8125L72.5021 47.1228L72.5074 47.1255Z" fill="#625D5E"/>
<path d="M77.6755 46.6306L77.1418 50.4338H76.5341L76.6001 49.9311C76.3042 50.1969 75.7467 50.5075 75.1681 50.5075C74.4018 50.5075 74.053 50.0706 74.1719 49.1994L74.5286 46.6332H75.205L74.8563 49.1336C74.8351 49.3047 74.8272 49.4442 74.8483 49.5468C74.8774 49.8416 75.0571 49.9601 75.3821 49.9601C75.8339 49.9601 76.3042 49.6942 76.616 49.4205L77.0017 46.6306H77.6781H77.6755Z" fill="#625D5E"/>
<path d="M79.4351 50.5206C78.7085 50.5206 78.3571 50.1811 78.4707 49.4257L78.7984 47.1253H78.2039L78.2699 46.6305H78.8644L79.0203 45.5356L79.7046 45.4382L79.5408 46.6279H80.5871L80.5211 47.1227H79.4748L79.155 49.3494C79.0969 49.7494 79.1392 49.9995 79.5937 49.9995C79.8394 49.9995 80.1062 49.9021 80.278 49.8073L80.3678 50.2811C80.1591 50.4074 79.7812 50.518 79.4404 50.518L79.4351 50.5206Z" fill="#625D5E"/>
<path d="M84.3972 46.6306L83.8635 50.4338H83.2558L83.3218 49.9311C83.0259 50.1969 82.4684 50.5075 81.8897 50.5075C81.1235 50.5075 80.7747 50.0706 80.8936 49.1994L81.2503 46.6332H81.9267L81.578 49.1336C81.5568 49.3047 81.5489 49.4442 81.57 49.5468C81.5991 49.8416 81.7788 49.9601 82.1038 49.9601C82.5556 49.9601 83.0259 49.6942 83.3377 49.4205L83.7234 46.6306H84.3998H84.3972Z" fill="#625D5E"/>
<path d="M84.9071 50.4313L85.4409 46.6281H86.0644L85.9825 47.2729C86.3762 46.836 86.7091 46.5623 87.2296 46.5623C87.2878 46.5623 87.3485 46.5623 87.4067 46.5702L87.3089 47.236C86.8122 47.1913 86.3947 47.3992 85.9508 47.7835L85.5783 50.4313H84.9019H84.9071Z" fill="#625D5E"/>
<path d="M87.3672 48.9757C87.3672 48.8125 87.3751 48.6493 87.3962 48.494C87.5521 47.3465 88.2497 46.5569 89.4677 46.5569C90.5669 46.5569 90.9606 47.2359 90.9606 48.1019C90.9606 48.265 90.9527 48.4124 90.9315 48.5835C90.7836 49.7811 90.0913 50.5206 88.905 50.5206C87.8269 50.5206 87.3672 49.9074 87.3672 48.9757ZM90.2498 48.5309C90.2657 48.3835 90.271 48.2413 90.271 48.094C90.271 47.4202 89.9671 47.0964 89.3885 47.0964C88.6989 47.0964 88.1915 47.5623 88.0727 48.5309C88.0568 48.6651 88.0515 48.8046 88.0515 48.9441C88.0515 49.6389 88.3554 50.01 88.9657 50.01C89.65 50.01 90.1309 49.5231 90.2498 48.5309Z" fill="#625D5E"/>
<path d="M91.5259 50.5208C91.2352 50.5208 91.0793 50.3866 91.0793 50.1208C91.0793 49.7496 91.2881 49.5522 91.6659 49.5522C91.9566 49.5522 92.1045 49.6917 92.1045 49.9523C92.1045 50.3234 91.9037 50.5208 91.5259 50.5208Z" fill="#625D5E"/>
</g>
<defs>
<clipPath id="clip0_268_173">
<rect width="108" height="52" fill="white"/>
</clipPath>
</defs>
</svg>
