<svg width="93" height="78" viewBox="0 0 93 78" fill="none" xmlns="http://www.w3.org/2000/svg">
<g clip-path="url(#clip0_268_172)">
<path d="M32.5809 76.991L0.53418 45.3385L41.0127 5.54224L73.5189 36.1192L32.5809 76.991Z" fill="url(#paint0_linear_268_172)"/>
<path d="M69.3054 32.5484L63.9872 27.5448L62.3898 29.1456C62.6519 28.2679 62.8128 27.3736 62.8575 26.4826L56.2555 20.2721L55.7479 20.7741C53.5549 21.449 51.488 22.5628 49.7479 24.0456C46.4601 26.8499 44.6487 30.7065 44.6487 34.9056C44.6487 37.5338 45.3222 39.738 46.6476 41.4768C44.5475 43.3519 42.1306 46.7431 40.2893 52.8754L40.0405 53.6833C39.9642 53.931 40.1716 54.1737 40.4287 54.1371L42.4209 53.8296L41.4887 56.5691L41.3891 56.4694L28.2546 69.6317L28.8368 70.2152C29.7475 71.1278 30.9568 71.6299 32.2441 71.6299C33.5313 71.6299 34.7406 71.1278 35.6513 70.2152L42.8041 63.0472C42.829 63.2617 42.8572 63.4828 42.8937 63.7105L43.3366 66.4284L62.1857 47.6108C62.8824 46.4788 63.5261 45.2869 63.5261 43.834C63.5261 43.204 63.2557 42.1052 63.0118 41.2374C62.9903 41.1643 62.9952 41.0862 63.0234 41.0163C64.9626 37.7848 67.1771 34.9621 69.3054 32.5468V32.5484ZM43.8375 57.1792C43.6683 57.5865 43.4958 57.9971 43.3416 58.4276L42.4159 57.5L43.6418 53.8961L44.6454 54.822C44.4629 55.6781 44.156 56.4195 43.8392 57.1792H43.8375ZM25.5922 70.1753C25.6104 70.0789 25.632 69.9842 25.6519 69.8894H25.6503C25.6735 69.6899 25.7564 69.3408 25.8593 68.9452C25.8709 68.897 25.8808 68.8471 25.8924 68.7989H25.8974C26.0567 68.1955 26.2474 67.5189 26.3403 67.1067C26.4 66.839 26.5692 66.3204 26.7583 65.7751C26.964 65.1567 27.183 64.5483 27.4169 63.9499C27.4401 63.89 27.4517 63.8551 27.4517 63.8551L27.455 63.8518C31.131 54.5344 38.0499 47.6357 42.1157 43.5863L43.1657 42.5374C43.3034 42.3994 43.3034 42.1766 43.1657 42.0387L40.9213 39.7912L43.6567 37.05C43.7712 36.9353 43.7944 36.7558 43.7098 36.6161L41.0192 32.1179C40.8998 31.9201 40.6277 31.8851 40.4652 32.0497L36.1556 36.3685C36.0179 36.5064 36.0179 36.7325 36.1556 36.8705L37.4511 38.1688L30.7345 44.8996C31.2372 43.5813 31.5805 42.0503 31.5805 40.3231C31.5805 39.2327 31.4097 38.2502 31.1725 37.4041L44.6487 24.0323L46.4601 26.0154L49.9636 22.6858L48.5685 20.0876L49.5555 19.0636L55.0827 19.1716L51.206 15.5245L50.6851 16.0498L50.6619 16.0265L49.1209 17.6256L48.9832 17.7653C48.9832 17.7653 48.9782 17.7753 48.9732 17.7786L47.8569 18.9372L45.4632 18.525L41.8055 22.5993L42.9899 23.6699H43.1525L36.8788 29.897C38.9125 26.2 40.1616 22.1156 40.6775 17.5159C40.7405 17.5026 40.8019 17.476 40.85 17.4278L41.7308 16.5451C43.529 14.6035 44.72 12.2962 45.1978 9.87419L40.9047 5.83472L26.3752 20.1191C26.9027 22.099 27.8432 23.5585 28.7506 24.5792L22.953 30.389C22.6196 30.7232 22.3193 31.0656 22.049 31.418C21.9113 31.556 21.8283 31.6391 21.82 31.6474L21.7686 31.7039C21.7205 31.7655 20.9243 32.7944 20.5676 34.352C20.3885 34.9987 20.2856 35.6736 20.2574 36.3818C19.3136 36.9237 18.4195 37.547 17.5967 38.2486C14.0933 41.2374 12.1641 45.3451 12.1641 49.8184C12.1641 52.8389 12.9951 55.329 14.634 57.239C14.3537 57.5582 14.0667 57.889 13.7665 58.2364C13.6869 58.3279 13.5973 58.4309 13.4994 58.5407L25.4777 70.3715C25.5341 70.3216 25.5773 70.2535 25.5922 70.1737V70.1753ZM27.188 50.5448C27.1979 50.5415 27.2062 50.5365 27.2162 50.5315L27.1697 50.6213C27.1747 50.5964 27.183 50.5714 27.188 50.5448Z" fill="url(#paint1_linear_268_172)"/>
<path d="M55.8954 60.6319L59.8815 58.4742L56.5324 56.0239L53.8567 58.6571L55.8954 60.6319Z" fill="white"/>
<path d="M79.8373 22.0259L91.9168 9.96562H68.1426C67.139 9.96562 66.3527 9.55669 66.8836 9.02308L69.196 6.73571C70.2543 5.67514 69.8346 5.00854 68.3649 5.00854H60.7177L48.8306 16.989L48.9069 16.9308L55.9801 17.0671C57.4499 17.0671 57.8695 17.7337 56.8112 18.7943L55.7645 19.8282C49.9271 21.5371 44.8777 26.4892 44.8777 33.4361C44.8777 36.7043 45.9642 38.8187 47.215 40.1902C42.8523 43.6993 40.9181 50.6811 40.5664 51.8248L43.2139 51.4375L44.9789 53.0782C44.4812 56.1502 42.4226 57.6563 43.1542 62.1346L43.7613 66.4052L50.667 58.3628L52.2826 59.8639L56.5325 56.0189L55.1142 54.6741L59.1866 50.7693L59.8717 47.9516C60.8123 45.9867 62.3848 44.4491 62.3848 42.3612C62.3848 41.8874 62.1775 40.9382 61.854 39.8112C61.8258 39.7131 61.796 39.6133 61.7661 39.5136C65.8418 32.585 71.228 27.455 74.4129 24.2634L72.1768 22.0225H79.8356L79.8373 22.0259ZM59.5134 31.2451C60.8388 29.4814 61.8739 27.1076 61.8739 24.5027C61.8739 23.5818 61.7329 22.749 61.5372 22.0259H68.7132L59.5134 31.2451Z" fill="white"/>
<path d="M39.9509 31.6358L36.698 34.8956C36.5603 35.0336 36.5603 35.2597 36.698 35.3977L39.362 38.0674C39.4997 38.2053 39.7253 38.2053 39.863 38.0674L42.4491 35.4758C42.5636 35.3611 42.5868 35.1816 42.5022 35.0419L40.505 31.704C40.3855 31.5061 40.1135 31.4712 39.9509 31.6358Z" fill="white"/>
<path d="M41.9631 40.8185L37.9935 36.8405L27.9328 46.9226L25.0614 52.4997C25.1609 52.237 25.2554 51.9677 25.345 51.6968L25.4014 51.617C25.3915 51.617 25.3815 51.617 25.3716 51.617C25.9555 49.8549 26.3436 48.1062 26.3436 48.1062L27.0105 47.5659C28.9463 45.4763 30.5421 42.4143 30.5421 38.8536C30.5421 35.4874 28.802 33.1535 28.802 33.1535C28.6129 33.1535 28.4238 33.1601 28.2347 33.1668C28.4238 33.1568 28.6129 33.1501 28.7987 33.1501C28.7987 33.1501 29.8205 33.7137 30.1506 35.6453C35.4041 30.4638 38.7582 24.2882 39.6639 15.8054L39.7552 15.7422L40.8682 14.6268C42.8041 12.5372 44.3999 9.54833 44.3999 5.98761C44.3999 3.93463 43.7181 1.84508 42.7328 0.724667C33.7934 -0.0715907 26.2176 6.16216 26.2176 15.2651C26.2176 19.1333 27.7951 21.6352 29.2416 23.083L29.7625 22.719C27.6226 24.9033 21.8997 30.6384 21.8997 30.6384C21.8997 30.6384 20.3669 32.5849 20.7236 35.1449C20.7236 35.1449 20.9392 35.0469 21.3141 34.8939C16.326 37.2977 12.4361 42.0536 12.4361 48.3472C12.4361 52.006 13.7151 54.305 15.1317 55.7595C13.6105 57.4701 11.7709 59.7358 9.12842 62.3839L18.451 72.6023L20.0302 71.0397L21.9395 72.8882L25.9256 70.7305L22.7158 68.3816L23.2101 67.8912L23.6497 68.3417L25.2969 68.0093L24.9502 67.2346C24.9502 67.2346 28.6345 55.836 33.8581 49.8117C38.7217 44.1997 41.9631 40.8168 41.9631 40.8168V40.8185Z" fill="white"/>
<path d="M42.8604 21.5438L44.2389 21.5604L46.11 23.6084L48.7658 21.0833L47.1501 18.0745L45.3254 17.762L42.3445 21.0783L42.8604 21.5438Z" fill="white"/>
<path d="M28.6196 68.252C30.3796 70.0157 33.2328 70.0157 34.9945 68.252L44.3071 58.9197L41.1205 55.7263L28.6196 68.2537V68.252Z" fill="white"/>
<path d="M31.0613 18.3855C32.6488 13.9188 35.9847 10.5991 41.3012 10.5991L31.0613 18.3855Z" fill="white"/>
<path d="M33.8648 20.7178C31.9671 20.7178 30.9005 21.4957 29.5187 22.8805L23.031 29.3819C21.4502 30.9661 20.5212 32.8827 20.5212 35.2998" fill="white"/>
<path d="M33.8647 20.7177V13.686C33.8647 16.4605 36.0411 19.1651 39.0635 19.1651" fill="white"/>
<path d="M26.1147 48.7428L37.9935 36.8389L41.963 40.8168C37.0496 45.7407 26.8976 55.2741 24.4011 68.9103" fill="white"/>
<path d="M17.6267 50.8742C19.4531 46.1681 23.1572 42.7969 28.1785 42.7969L17.6267 50.8742Z" fill="white"/>
<path d="M26.3736 64.3057C26.1845 64.8509 26.0153 65.3696 25.9556 65.6372C26.0866 65.1884 26.2276 64.7445 26.3736 64.3057Z" fill="#625D5E"/>
<path d="M25.267 68.42C25.3317 68.1042 25.4014 67.7883 25.4744 67.4758C25.3715 67.8715 25.2886 68.2206 25.2654 68.4184H25.267V68.42Z" fill="#625D5E"/>
<path d="M27.0322 62.4804C27.0455 62.4472 27.0588 62.4156 27.072 62.3823L27.0687 62.3857C27.0687 62.3857 27.0554 62.4206 27.0339 62.4804H27.0322Z" fill="#625D5E"/>
<path d="M51.168 34.5034L49.6353 36.0494V38.4116L51.168 36.8673V34.5034Z" fill="#625D5E"/>
<path d="M51.168 38.252L49.6353 39.7979V42.1534L51.168 40.6091V38.252Z" fill="#625D5E"/>
<path d="M51.168 41.9922L49.6353 43.5382V45.8904L51.168 44.5389V41.9922Z" fill="#625D5E"/>
<path d="M58.2444 56.3597L56.9406 55.5086L56.443 55.0365L74.0463 37.3958V36.0593L68.9388 31.059C70.8448 28.898 72.6811 27.0628 74.184 25.5667L75.2324 24.5194C75.3717 24.3814 75.3717 24.1554 75.2324 24.0157L73.902 22.6825H79.9617C80.0546 22.6825 80.1442 22.646 80.2105 22.5795L92.8955 9.91581C93.1194 9.69306 92.9618 9.31072 92.6467 9.31072H68.1426C67.9137 9.31072 67.7262 9.28579 67.5852 9.25254L69.6604 7.20122C70.533 6.32683 70.5197 5.66522 70.3538 5.2646C70.1813 4.84902 69.6986 4.35364 68.3665 4.35364H60.595C60.5004 4.35364 60.4109 4.39188 60.3445 4.45837L51.2392 13.6344L45.0303 7.46553L44.949 7.54699C45.0154 7.03 45.0518 6.50969 45.0518 5.98772C45.0518 3.79011 44.3319 1.55427 43.2205 0.2909L43.048 0.0947448L42.7876 0.0714722C38.123 -0.349098 33.5927 1.1204 30.358 4.08601C27.266 6.92195 25.5624 10.8916 25.5624 15.2652C25.5624 16.7098 25.7714 17.9682 26.1048 19.057L0 44.878V46.2095L12.1326 58.16C10.7972 59.6212 9.05549 61.4781 8.44504 62.128C8.31897 62.2627 8.31897 62.4705 8.44504 62.6068L18.1823 73.2806C18.3167 73.4286 18.5456 73.4336 18.6882 73.2939L19.866 72.132L21.2345 73.505C21.3374 73.6081 21.4933 73.638 21.626 73.5782L25.8494 71.7114L32.2225 77.9983H33.5297L51.4781 60.0119L52.0454 60.5372C52.1781 60.6602 52.3838 60.6619 52.5182 60.5388L53.5583 59.598L55.6517 61.5678C55.7645 61.6726 55.9304 61.6942 56.0647 61.6194L61.0711 58.8217C61.3033 58.692 61.3149 58.3612 61.0926 58.2166L58.9096 56.7903L58.2461 56.3564L58.2444 56.3597ZM49.9056 14.9427L48.7377 16.1545L48.6001 16.2942C48.6001 16.2942 48.5951 16.3042 48.5901 16.3075L47.4737 17.4661L45.0801 17.0539L41.4224 21.1282L42.6068 22.1988H42.7693L36.4957 28.4259C38.5294 24.7289 39.7785 20.6445 40.2944 16.0448C40.3574 16.0315 40.4188 16.0049 40.4669 15.9567L41.3477 15.074C42.8506 13.4533 43.9272 11.5748 44.521 9.58999L49.9089 14.9427H49.9056ZM47.9515 20.9537L46.1417 22.6742L44.5293 20.9105L43.3914 20.8955L45.5694 18.4702L46.7256 18.6697L47.9515 20.9554V20.9537ZM37.7431 38.1605C37.8808 38.0225 38.1031 38.0225 38.2407 38.1605L40.6294 40.5543C40.7704 40.6956 40.7688 40.925 40.6211 41.0613C38.6588 42.8549 26.6174 54.2935 23.9168 67.3395L23.8074 67.4525L23.5237 67.1699C23.5237 67.1699 23.5187 67.1666 23.5154 67.1649L23.1903 66.8424C23.1903 66.8424 23.1853 66.8341 23.182 66.8291L18.9105 62.6251C18.7712 62.4888 18.7728 62.2643 18.9089 62.1247C21.3871 59.5813 23.328 57.2375 24.7263 54.6708C24.7728 54.6409 24.8126 54.601 24.8425 54.5495C25.1875 53.9577 25.5093 53.1913 25.7946 52.3967C26.211 51.3478 26.5477 50.249 26.8048 49.0754C26.853 49.0588 26.8994 49.0305 26.9376 48.9923L37.7464 38.1605H37.7431ZM37.622 34.8974L39.8183 32.6964C39.9808 32.5335 40.2545 32.5668 40.3723 32.7646L41.6762 34.9439C41.7591 35.0835 41.7375 35.2631 41.6231 35.3778L39.8614 37.1432C39.7221 37.2811 39.4981 37.2811 39.3604 37.1432L37.622 35.401C37.4843 35.2631 37.4843 35.037 37.622 34.899V34.8974ZM24.4808 52.1856C24.4808 52.1856 24.4742 52.2022 24.4709 52.2106C24.1623 52.9553 23.8074 53.6734 23.4076 54.3749L21.0736 52.036V49.9864C21.8864 51.0536 23.0509 51.9196 24.4792 52.1856H24.4808ZM21.0769 46.5187C22.4853 45.0525 24.1856 44.0834 26.0882 43.6745C26.0534 45.3102 25.9141 46.7913 25.6603 48.1595C25.5558 48.6016 25.2821 49.727 24.9072 50.9272C22.4504 50.6081 21.1068 47.9616 21.0769 46.5187ZM27.2444 46.276C27.334 45.3917 27.3854 44.4624 27.4004 43.4833C27.543 43.4717 27.6873 43.4634 27.8317 43.4584C28.0241 43.4517 28.1783 43.2988 28.1783 43.106V42.5059C28.1783 42.3047 28.0125 42.1401 27.8118 42.1468C23.1521 42.2964 19.2058 45.3119 17.1505 50.2972C17.0742 50.4817 17.1671 50.6945 17.3529 50.7677L17.9103 50.9854C18.0911 51.0552 18.2918 50.9655 18.3648 50.7859C18.7629 49.8201 19.2323 48.9407 19.7632 48.1511V51.6986C18.0811 51.9313 16.7176 53.0617 15.1301 54.7822C13.7732 53.1298 13.0881 50.9705 13.0881 48.3473C13.0881 43.5082 15.9661 38.4082 20.9525 35.7219L20.9907 35.7418C21.0305 35.7235 24.8889 33.9897 28.2679 33.8168C28.389 33.8235 28.5002 33.8867 28.5615 33.993C29.0243 34.791 29.8853 36.578 29.8853 38.8504C29.8853 42.19 28.4487 44.7301 27.2428 46.2744L27.2444 46.276ZM29.1139 32.5734L28.7987 32.492C28.598 32.492 28.3957 32.4986 28.1916 32.5102C25.8378 32.595 23.4872 33.1702 21.3291 34.1626C21.3424 33.8285 21.3888 33.511 21.4552 33.2151C21.6973 32.354 22.0988 31.5511 22.6644 30.7997C24.0097 29.4516 29.4606 23.9825 30.7512 22.6443C30.8225 22.5712 30.8955 22.5013 30.9685 22.4365C31.7813 21.7749 32.541 21.4308 33.5994 21.3826L36.8407 24.6308C35.3959 28.2131 33.2925 31.4264 30.4808 34.3737C29.9848 33.0921 29.2184 32.6333 29.1139 32.5751V32.5734ZM38.3469 19.7751C38.0765 20.982 37.7431 22.1489 37.3483 23.281L34.52 20.4467V17.4927C35.4191 18.683 36.7395 19.5706 38.3469 19.7768V19.7751ZM34.5947 14.5105L34.6079 14.0833C35.23 13.3435 35.8736 12.8232 36.4874 12.4525C36.8639 12.2398 37.2654 12.0486 37.6933 11.8857C38.327 11.6679 38.8744 11.5964 39.2543 11.5815C39.2228 14.0184 39.0088 16.3141 38.6073 18.4868C36.4509 18.2591 34.938 16.4371 34.5947 14.5138V14.5105ZM31.2422 5.05348C34.1053 2.42866 38.0865 1.09048 42.2285 1.34316C42.3364 1.34981 42.4375 1.403 42.5006 1.4911C43.2537 2.56663 43.743 4.3071 43.743 5.98605C43.743 9.89919 41.7093 12.7301 40.4652 14.0933C40.5249 13.1756 40.5581 12.2381 40.5647 11.2806C40.6941 11.2723 40.8235 11.264 40.9562 11.2606C41.147 11.2557 41.3013 11.1027 41.3013 10.9115V10.3031C41.3013 10.1053 41.137 9.94241 40.9396 9.94739C39.5346 9.98563 38.2291 10.2499 37.0364 10.727C36.8324 10.8052 36.6217 10.8966 36.4077 11.0013C36.3945 11.008 36.3812 11.0146 36.3679 11.0213C36.3132 11.0479 36.2585 11.0761 36.2037 11.1044C33.7055 12.3711 31.773 14.6518 30.5704 17.8269C30.5007 18.0114 30.5986 18.2208 30.7844 18.2857L31.3533 18.4885C31.5341 18.5533 31.7315 18.4602 31.7995 18.279C32.1164 17.4495 32.5709 16.4854 33.2095 15.5411V16.9691L33.1183 19.9746C32.4 20.1142 31.1675 20.4866 30.091 21.4591C29.8289 21.6752 29.5668 21.9145 29.2947 22.1772C28.107 20.8207 26.8712 18.6065 26.8712 15.2619C26.8712 11.2606 28.4222 7.63509 31.2405 5.05016L31.2422 5.05348ZM1.98395 45.5413L26.8679 20.9304C27.3241 21.8081 27.8499 22.5279 28.3658 23.1081L22.5682 28.9179C22.2348 29.2521 21.9346 29.5945 21.6642 29.9469C21.5265 30.0849 21.4435 30.168 21.4353 30.1763L21.3838 30.2328C21.3357 30.2944 20.5395 31.3233 20.1828 32.8809C20.0037 33.5276 19.9008 34.2025 19.8726 34.9107C18.9288 35.4526 18.0347 36.076 17.2119 36.7775C13.7085 39.7663 11.7793 43.874 11.7793 48.3473C11.7793 51.3678 12.6103 53.8579 14.2493 55.768C13.9689 56.0871 13.6819 56.4179 13.3817 56.7654V56.7687L1.98395 45.5413ZM19.5293 70.6159L18.7314 71.4022C18.5904 71.5418 18.3598 71.5352 18.2254 71.3889L10.2515 62.6483C10.1254 62.5104 10.1321 62.2976 10.2615 62.1646C11.9219 60.4557 13.2656 58.9031 14.3687 57.6264C16.701 54.9301 18.1757 53.2246 19.9838 52.9902C20.08 52.9786 20.1762 53.0101 20.2492 53.0716L22.5516 55.4255L22.5782 55.3989L22.7042 55.5252C21.3473 57.6048 19.5757 59.6013 17.3728 61.8155C17.3065 61.882 17.2683 61.9734 17.2683 62.0665L17.2716 62.7049C17.2716 62.7996 17.3098 62.8894 17.3778 62.9559L22.263 67.7634C22.2829 67.7833 22.3078 67.7933 22.3294 67.8066L19.526 70.6159H19.5293ZM21.9146 72.0156C21.7819 72.0738 21.626 72.0455 21.5232 71.9425L21.0405 71.457C20.9144 71.3307 20.9094 71.1329 21.0156 70.9949L23.0675 68.9719L24.8425 70.7223L21.9146 72.0156ZM32.8745 76.0235L26.9376 70.1338L25.2522 68.4898C25.2572 68.4665 25.2621 68.4432 25.2671 68.42H25.2655C25.2887 68.2205 25.3716 67.8714 25.4745 67.4758C25.4861 67.4276 25.496 67.3777 25.5077 67.3295H25.5126C25.6719 66.7261 25.8626 66.0495 25.9555 65.6372C26.0152 65.3696 26.1845 64.8509 26.3736 64.3057C26.5792 63.6873 26.7982 63.0789 27.0321 62.4804C27.0553 62.4206 27.0669 62.3857 27.0669 62.3857L27.0703 62.3824C30.7462 53.065 37.6651 46.1663 41.7309 42.1169L42.7809 41.0679C42.9186 40.93 42.9186 40.7072 42.7809 40.5692L40.5365 38.3218L43.2719 35.5806C43.3864 35.4659 43.4096 35.2863 43.325 35.1467L40.6344 30.6484C40.515 30.4506 40.2429 30.4157 40.0804 30.5803L35.7708 34.899C35.6331 35.037 35.6331 35.2631 35.7708 35.401L37.0663 36.6993L30.3497 43.4301C30.8524 42.1119 31.1957 40.5809 31.1957 38.8537C31.1957 37.7632 31.0249 36.7808 30.7877 35.9347L44.2639 22.5628L46.0753 24.546L49.5788 21.2164L48.1837 18.6181L49.1707 17.5941L55.9818 17.7271C56.4214 17.7271 56.637 17.7953 56.7283 17.8368C56.6901 17.9266 56.5873 18.0962 56.3517 18.3305L55.3631 19.308C53.1701 19.9829 51.1016 21.0967 49.3631 22.5795C46.0753 25.3838 44.2639 29.2404 44.2639 33.4395C44.2639 36.0676 44.9374 38.2719 46.2628 40.0107C44.1627 41.8858 41.7458 45.277 39.9045 51.4093L39.6557 52.2172C39.5794 52.4649 39.7868 52.7076 40.0439 52.671L42.0361 52.3618L41.1188 55.0565C41.0126 55.0565 40.9065 55.098 40.8252 55.1778L28.0722 67.9578C27.9096 68.1208 27.9096 68.3851 28.0722 68.548L28.1983 68.6743C29.1935 69.6717 30.499 70.1687 31.8062 70.1687C33.1133 70.1687 34.4188 69.67 35.4141 68.6743L42.4276 61.646C42.4508 61.8405 42.4757 62.0383 42.5089 62.2444L43.0861 65.7835L32.8745 76.0251V76.0235ZM51.6821 50.5183C51.5395 50.3837 51.5362 50.1592 51.6722 50.0179C51.8431 49.8401 52.0106 49.6639 52.1748 49.4893C55.4095 46.02 57.2442 42.9447 58.2063 38.8155C57.712 42.7535 56.2821 47.3449 52.8748 51.6503L51.6821 50.5183ZM57.7551 29.0958C57.7717 29.1623 57.7883 29.2371 57.8065 29.3202C57.7816 31.6625 57.6705 33.6938 57.4449 35.5091C55.1839 35.1999 53.4189 33.235 53.3045 30.818C54.522 29.7341 55.879 29.1124 57.4183 28.9229C57.5593 28.9063 57.6871 28.9811 57.7551 29.0958ZM57.2574 36.8107C57.0103 38.2885 56.6719 39.6217 56.2174 40.8668L53.3957 38.0375C53.3294 37.971 53.2929 37.8812 53.2929 37.7882V34.4685C54.25 35.7219 55.6567 36.5879 57.2574 36.8107ZM59.1103 29.7657C59.117 29.3053 59.1236 28.8382 59.1236 28.3527C59.1236 28.2597 59.0871 28.1666 59.0208 28.1001L58.5762 27.6546C58.5082 27.5864 58.4136 27.5465 58.3174 27.5482C54.678 27.6014 51.8082 29.5663 49.5589 33.5509C49.4627 33.7221 49.5257 33.9432 49.6982 34.0363L50.2323 34.3272C50.3999 34.4186 50.6106 34.3538 50.7051 34.1875C51.1132 33.4644 51.5411 32.8211 51.9857 32.2493V38.3317C51.9857 38.4248 52.0222 38.5146 52.0886 38.5811L55.6849 42.1867C54.5254 44.7517 52.7985 47.0124 50.3004 49.5525L42.2153 50.8242C41.9548 50.8624 41.7442 50.6081 41.8304 50.3587C43.6817 44.9345 45.9559 42.1285 47.8221 40.6773C47.9083 40.6108 47.9564 40.5111 47.9564 40.4013V39.4006C47.9564 39.118 47.6396 38.9451 47.4074 39.1064C47.346 39.1496 47.2846 39.1928 47.2216 39.2377C46.0753 37.72 45.4931 35.7734 45.4931 33.4395C45.4931 26.9531 50.9971 19.9596 59.9149 19.7934C60.308 20.4168 61.2585 22.1739 61.2585 24.5028C61.2585 26.4394 60.6265 28.4425 59.5151 30.1713L59.2331 30.4539C59.1916 30.2046 59.1485 29.9752 59.1087 29.7657H59.1103ZM44.2274 64.6398L43.8028 62.0333C43.7248 61.5512 43.68 61.109 43.6634 60.6951C45.4948 59.6927 47.1901 58.5839 48.7178 57.3904L50.161 58.6887L44.2274 64.6382V64.6398ZM43.0198 56.7886L42.0892 55.8561L43.2554 52.425L44.2589 53.3509C44.0765 54.207 43.7696 54.9484 43.4528 55.7081C43.3051 56.0605 43.1575 56.4179 43.0198 56.787V56.7886ZM40.8252 56.8651C40.9877 56.7022 41.2515 56.7022 41.4141 56.8651L43.1707 58.6255C43.3333 58.7884 43.3333 59.0527 43.1707 59.2156L34.5731 67.8315C33.3273 69.0799 31.4446 69.3093 29.9649 68.518C29.7161 68.3851 29.6613 68.0509 29.8604 67.8515L40.8252 56.8634V56.8651ZM44.8627 58.6371C44.8627 58.6371 44.8578 58.6288 44.8545 58.6255L44.0516 57.8209C44.2258 57.2657 44.4414 56.7454 44.662 56.2168C44.9092 55.625 45.1597 55.0232 45.3571 54.3633L47.832 56.5908C46.9048 57.3056 45.9128 57.9888 44.8644 58.6371H44.8627ZM52.5248 58.7668C52.3905 58.8881 52.1848 58.8881 52.0521 58.7651L44.677 51.9546L50.3617 51.0735L55.2934 55.753C55.4427 55.8943 55.4394 56.132 55.2868 56.27L52.5248 58.7685V58.7668ZM56.8593 57.0213L58.5596 58.1318C58.7819 58.2764 58.7703 58.6072 58.538 58.7369L56.2621 60.0086C56.1278 60.0834 55.9602 60.0634 55.8491 59.957L54.9202 59.0826C54.7742 58.9463 54.7709 58.7153 54.9119 58.574L56.4164 57.0662C56.5342 56.9482 56.7183 56.9283 56.8593 57.0197V57.0213ZM72.0607 36.7276L60.5651 48.2575C60.8421 47.6824 61.1855 47.1338 61.5372 46.5703C62.3268 45.3085 63.1413 44.0036 63.1413 42.3662C63.1413 41.7362 62.8709 40.6374 62.627 39.7697C62.6055 39.6949 62.6104 39.6184 62.6386 39.5486C64.2145 36.9221 65.9729 34.5649 67.7196 32.477L72.0607 36.7259V36.7276ZM73.1174 24.4928C70.3704 27.2273 66.5269 31.064 63.118 36.0045L63.123 35.9895C63.0699 36.0676 63.0036 36.1674 62.9323 36.2738C62.501 36.9071 62.0796 37.5637 61.6666 38.2353L61.6599 38.2303L60.9815 39.3574C60.9201 39.4588 60.9135 39.5818 60.9632 39.6899L61.0694 39.9209C61.1192 40.029 61.1623 40.1437 61.1938 40.2584C61.514 41.4054 61.6301 42.0969 61.6301 42.3679C61.6301 43.5697 60.9931 44.5888 60.2566 45.7674C59.4554 47.049 58.553 48.4919 58.4435 50.387L55.0894 53.7515L53.7341 52.4666C58.2544 46.798 59.4288 40.7039 59.5997 36.5148C59.6644 34.9472 59.5997 33.5376 59.4836 32.3473L70.1946 21.6136C70.3339 21.474 70.5578 21.474 70.6972 21.6136L73.3447 24.2684L73.1191 24.4945L73.1174 24.4928ZM62.3367 22.7823L66.9599 22.7108L62.005 27.6762C62.3185 26.6306 62.4877 25.5584 62.4877 24.5028C62.4877 23.891 62.4296 23.3159 62.3367 22.7823ZM72.8503 21.1332C72.716 21.2679 72.5036 21.2695 72.3643 21.1432L70.6955 19.4709C70.6955 19.4709 70.6856 19.4659 70.6823 19.4609L70.6109 19.3894C70.4732 19.2515 70.4732 19.0271 70.6109 18.8891L72.6164 16.8793C72.7807 16.7148 73.0577 16.7513 73.1738 16.9541L74.4395 19.175C74.5191 19.313 74.4959 19.4875 74.3831 19.6006L72.8536 21.1349L72.8503 21.1332ZM89.7255 11.2274L79.6697 21.2662C79.6034 21.3327 79.5138 21.3693 79.4209 21.3693H74.4677L76.0137 19.82C76.1265 19.707 76.1497 19.5324 76.0701 19.3944L73.4608 14.8114C73.3447 14.6086 73.0693 14.572 72.9034 14.7366L68.758 18.8891C68.6203 19.0271 68.6203 19.2515 68.758 19.3894L69.5161 20.1491L68.2902 21.3776L62.0166 21.474C61.5123 19.8632 60.7775 18.8658 60.7293 18.8026L60.5452 18.5583H60.24C59.3907 18.5583 58.538 18.6314 57.6954 18.7661C58.1366 18.1344 58.1018 17.6457 57.9691 17.3248C57.7966 16.9092 57.3138 16.4139 55.9951 16.4139L51.2625 16.3224C50.9523 16.3158 50.7997 15.9401 51.0186 15.719L60.8886 5.77161C60.9549 5.70512 61.0445 5.66689 61.1391 5.66689H68.3665C68.8061 5.66689 69.0218 5.73504 69.113 5.7766C69.0749 5.86637 68.972 6.03592 68.7365 6.27031L66.4207 8.56101C65.9281 9.05472 66.0542 9.54012 66.1305 9.7263C66.4755 10.5591 67.7578 10.624 68.1426 10.624H89.4767C89.7918 10.624 89.9494 11.0063 89.7255 11.2291V11.2274Z" fill="#625D5E"/>
</g>
<defs>
<linearGradient id="paint0_linear_268_172" x1="81.526" y1="41.2658" x2="-31.3234" y2="41.2658" gradientUnits="userSpaceOnUse">
<stop stop-color="white"/>
<stop offset="1" stop-color="#CECAB8"/>
</linearGradient>
<linearGradient id="paint1_linear_268_172" x1="132.382" y1="38.7323" x2="22.2613" y2="38.7323" gradientUnits="userSpaceOnUse">
<stop stop-color="white"/>
<stop offset="0.44" stop-color="#E8E6DE"/>
<stop offset="1" stop-color="#CECAB8"/>
</linearGradient>
<clipPath id="clip0_268_172">
<rect width="93" height="78" fill="white"/>
</clipPath>
</defs>
</svg>
