<svg xmlns="http://www.w3.org/2000/svg" width="177" height="65" viewBox="0 0 177 65">
  <g id="Grupo_26949" data-name="Grupo 26949" transform="translate(0.459 -0.002)">
    <rect id="Rectángulo_11081" data-name="Rectángulo 11081" width="177" height="65" transform="translate(-0.459 0.002)" fill="none"/>
    <g id="Grupo_26927" data-name="Grupo 26927" transform="translate(18.858 16.359)">
      <rect id="Rectángulo_7945" data-name="Rectángulo 7945" width="7.253" height="1.573" transform="translate(2.522 9.947)" fill="#f37c20"/>
      <path id="Trazado_47655" data-name="Trazado 47655" d="M30.816,27.66V19.725H45.155V18.151H28.883V39.057H45.32V37.484h-14.5V27.66Z" transform="translate(-28.872 -17.47)" fill="#f37c20"/>
      <path id="Trazado_47656" data-name="Trazado 47656" d="M68.581,18.151,59.623,36.919,50.568,18.151H48.1V39.057h1.933V20.871l8.714,18.186h1.6v-.243l.22.1L69.116,20.88V39.057H71.05V18.151Z" transform="translate(-26.383 -17.47)" fill="#f37c20"/>
      <path id="Trazado_47657" data-name="Trazado 47657" d="M95.638,27.481V19.7H109.7V18.151H93.732V38.663h16.129V37.111H95.638v-9.63Z" transform="translate(-20.473 -17.47)" fill="#1d2856"/>
      <rect id="Rectángulo_7946" data-name="Rectángulo 7946" width="6.607" height="1.552" transform="translate(76.238 9.768)" fill="#1d2856"/>
      <rect id="Rectángulo_7947" data-name="Rectángulo 7947" width="18.476" height="1.573" transform="translate(49.855 0.681)" fill="#1d2856"/>
      <path id="Trazado_47658" data-name="Trazado 47658" d="M81.656,20.366H80.32v18.4h1.822v-18.4h-.486Z" transform="translate(-22.21 -17.183)" fill="#1d2856"/>
      <path id="Trazado_47659" data-name="Trazado 47659" d="M137.265,18.151h-1.934l.013,10.839h16.431V39.057h1.913V27.418H137.265Z" transform="translate(-15.086 -17.47)" fill="#1d2856"/>
      <rect id="Rectángulo_7948" data-name="Rectángulo 7948" width="1.943" height="8.131" transform="translate(136.69 0.681)" fill="#1d2856"/>
      <rect id="Rectángulo_7949" data-name="Rectángulo 7949" width="1.899" height="9.033" transform="translate(120.246 12.554)" fill="#1d2856"/>
      <path id="Trazado_47660" data-name="Trazado 47660" d="M113.794,21.554a1.228,1.228,0,1,1-1.227,1.228,1.228,1.228,0,0,1,1.227-1.228" transform="translate(-18.034 -17.029)" fill="#f37c20" fill-rule="evenodd"/>
      <path id="Trazado_47661" data-name="Trazado 47661" d="M130.551,24.461a.972.972,0,0,1-.839-.48,9.114,9.114,0,0,0-7.83-4.488,8.992,8.992,0,0,0-5.348,1.744.973.973,0,0,1-1.15-1.571,10.945,10.945,0,0,1,6.5-2.118A11.065,11.065,0,0,1,131.389,23a.972.972,0,0,1-.347,1.331.956.956,0,0,1-.491.134" transform="translate(-17.721 -17.548)" fill="#1d2856"/>
      <path id="Trazado_47662" data-name="Trazado 47662" d="M122.354,38.661a11.03,11.03,0,0,1-10.794-13.235.972.972,0,1,1,1.905.389,9.183,9.183,0,0,0-.183,1.83,9.073,9.073,0,0,0,17.589,3.128.972.972,0,0,1,1.825.671,11.056,11.056,0,0,1-10.343,7.218" transform="translate(-18.193 -16.628)" fill="#1d2856"/>
      <path id="Trazado_47663" data-name="Trazado 47663" d="M28.874,40.479h3.094v.38H29.291v1.807h2.626v.381H29.291v1.931h2.677v.381H28.874Z" transform="translate(-28.874 -14.578)" fill="#424142"/>
      <path id="Trazado_47664" data-name="Trazado 47664" d="M37.886,42.742c0-.5-.212-.805-.709-.805a1.311,1.311,0,0,0-1.01.6v2.678h-.389V42.742c0-.5-.2-.805-.709-.805a1.358,1.358,0,0,0-1.01.608v2.671h-.38V41.681h.38v.534a1.555,1.555,0,0,1,1.142-.622.889.889,0,0,1,.928.666,1.469,1.469,0,0,1,1.171-.666c.651,0,.966.366.966,1.075v2.547h-.381Z" transform="translate(-28.251 -14.434)" fill="#424142"/>
      <path id="Trazado_47665" data-name="Trazado 47665" d="M41.48,41.593a1.7,1.7,0,0,1,1.668,1.874v.1H40.192a1.375,1.375,0,0,0,1.375,1.4,1.567,1.567,0,0,0,1.163-.489l.2.247a1.819,1.819,0,0,1-1.383.572,1.859,1.859,0,0,1-.066-3.709m-1.288,1.676h2.567a1.3,1.3,0,0,0-1.288-1.346,1.329,1.329,0,0,0-1.28,1.346" transform="translate(-27.462 -14.434)" fill="#424142"/>
      <path id="Trazado_47666" data-name="Trazado 47666" d="M44.794,41.679h.381v.608a1.516,1.516,0,0,1,1.193-.681v.417a1.679,1.679,0,0,0-.191-.015,1.348,1.348,0,0,0-1,.629v2.575h-.381Z" transform="translate(-26.812 -14.432)" fill="#424142"/>
      <path id="Trazado_47667" data-name="Trazado 47667" d="M48.264,45.822a1.345,1.345,0,0,0,1.17.5,1.078,1.078,0,0,0,1.207-1.134V44.63a1.534,1.534,0,0,1-1.229.657,1.87,1.87,0,0,1,0-3.695,1.512,1.512,0,0,1,1.229.659v-.57h.387v3.5c0,1.083-.732,1.469-1.595,1.469a1.7,1.7,0,0,1-1.39-.533Zm2.378-3.241a1.425,1.425,0,0,0-1.163-.645c-.783,0-1.237.652-1.237,1.508s.454,1.5,1.237,1.5a1.422,1.422,0,0,0,1.163-.644Z" transform="translate(-26.418 -14.434)" fill="#424142"/>
      <path id="Trazado_47668" data-name="Trazado 47668" d="M52.78,40.915a.3.3,0,0,1,.293-.294.293.293,0,0,1,0,.586.3.3,0,0,1-.293-.293m.1.892h.381V45.34h-.381Z" transform="translate(-25.777 -14.56)" fill="#424142"/>
      <path id="Trazado_47669" data-name="Trazado 47669" d="M57.807,42.83c0-.688-.345-.892-.855-.892a1.535,1.535,0,0,0-1.149.607v2.67h-.381V41.681H55.8v.534a1.789,1.789,0,0,1,1.273-.622c.716,0,1.111.351,1.111,1.15v2.471h-.381Z" transform="translate(-25.435 -14.434)" fill="#424142"/>
      <path id="Trazado_47670" data-name="Trazado 47670" d="M60.336,45.822a1.345,1.345,0,0,0,1.17.5,1.078,1.078,0,0,0,1.207-1.134V44.63a1.534,1.534,0,0,1-1.229.657,1.622,1.622,0,0,1-1.58-1.843,1.637,1.637,0,0,1,1.58-1.851,1.51,1.51,0,0,1,1.229.659v-.57H63.1v3.5c0,1.083-.733,1.469-1.6,1.469a1.693,1.693,0,0,1-1.389-.533Zm2.378-3.241a1.424,1.424,0,0,0-1.163-.645c-.783,0-1.236.652-1.236,1.508s.453,1.5,1.236,1.5a1.42,1.42,0,0,0,1.163-.644Z" transform="translate(-24.855 -14.434)" fill="#424142"/>
      <path id="Trazado_47671" data-name="Trazado 47671" d="M69.084,40.859H67.49v-.38H71.1v.38h-1.6v4.5h-.424Z" transform="translate(-23.872 -14.578)" fill="#424142"/>
      <path id="Trazado_47672" data-name="Trazado 47672" d="M73.332,41.593A1.7,1.7,0,0,1,75,43.467v.1H72.045a1.376,1.376,0,0,0,1.376,1.4,1.567,1.567,0,0,0,1.163-.489l.2.247A1.821,1.821,0,0,1,73.4,45.3a1.859,1.859,0,0,1-.067-3.709m-1.288,1.676h2.569a1.3,1.3,0,0,0-1.288-1.346,1.33,1.33,0,0,0-1.281,1.346" transform="translate(-23.336 -14.434)" fill="#424142"/>
      <path id="Trazado_47673" data-name="Trazado 47673" d="M78.186,41.593a1.469,1.469,0,0,1,1.25.6l-.263.234a1.128,1.128,0,0,0-.966-.49,1.523,1.523,0,0,0,0,3.023,1.136,1.136,0,0,0,.966-.5l.263.234a1.455,1.455,0,0,1-1.25.608,1.86,1.86,0,0,1,0-3.709" transform="translate(-22.71 -14.434)" fill="#424142"/>
      <path id="Trazado_47674" data-name="Trazado 47674" d="M83.4,42.951c0-.68-.343-.87-.856-.87a1.537,1.537,0,0,0-1.149.607v2.67h-.381v-4.88h.381v1.88a1.794,1.794,0,0,1,1.273-.621.986.986,0,0,1,1.113,1.134v2.487H83.4Z" transform="translate(-22.121 -14.578)" fill="#424142"/>
      <path id="Trazado_47675" data-name="Trazado 47675" d="M88.061,42.83c0-.688-.343-.892-.856-.892a1.534,1.534,0,0,0-1.148.607v2.67h-.381V41.681h.381v.534a1.789,1.789,0,0,1,1.273-.622c.716,0,1.111.351,1.111,1.15v2.471h-.381Z" transform="translate(-21.517 -14.434)" fill="#424142"/>
      <path id="Trazado_47676" data-name="Trazado 47676" d="M90.159,43.444a1.707,1.707,0,1,1,1.7,1.858,1.715,1.715,0,0,1-1.7-1.858m2.992,0a1.308,1.308,0,1,0-1.294,1.514,1.365,1.365,0,0,0,1.294-1.514" transform="translate(-20.936 -14.434)" fill="#424142"/>
      <rect id="Rectángulo_7950" data-name="Rectángulo 7950" width="0.381" height="4.88" transform="translate(74.921 25.902)" fill="#424142"/>
      <path id="Trazado_47677" data-name="Trazado 47677" d="M97.575,43.444a1.708,1.708,0,1,1,1.7,1.858,1.714,1.714,0,0,1-1.7-1.858m2.992,0a1.308,1.308,0,1,0-1.3,1.514,1.365,1.365,0,0,0,1.3-1.514" transform="translate(-19.976 -14.434)" fill="#424142"/>
      <path id="Trazado_47678" data-name="Trazado 47678" d="M102.87,45.822a1.347,1.347,0,0,0,1.171.5,1.078,1.078,0,0,0,1.206-1.134V44.63a1.534,1.534,0,0,1-1.229.657,1.622,1.622,0,0,1-1.58-1.843,1.637,1.637,0,0,1,1.58-1.851,1.509,1.509,0,0,1,1.229.659v-.57h.389v3.5c0,1.083-.732,1.469-1.595,1.469a1.694,1.694,0,0,1-1.39-.533Zm2.378-3.241a1.423,1.423,0,0,0-1.162-.645c-.784,0-1.237.652-1.237,1.508s.453,1.5,1.237,1.5a1.419,1.419,0,0,0,1.162-.644Z" transform="translate(-19.346 -14.434)" fill="#424142"/>
      <path id="Trazado_47679" data-name="Trazado 47679" d="M107.388,40.915a.3.3,0,0,1,.293-.294.293.293,0,0,1,0,.586.3.3,0,0,1-.293-.293m.1.892h.381V45.34h-.381Z" transform="translate(-18.705 -14.56)" fill="#424142"/>
      <path id="Trazado_47680" data-name="Trazado 47680" d="M111.553,41.593a1.7,1.7,0,0,1,1.668,1.874v.1h-2.956a1.375,1.375,0,0,0,1.375,1.4,1.57,1.57,0,0,0,1.165-.489l.2.247a1.816,1.816,0,0,1-1.381.572,1.859,1.859,0,0,1-.067-3.709m-1.288,1.676h2.569a1.3,1.3,0,0,0-1.288-1.346,1.33,1.33,0,0,0-1.281,1.346" transform="translate(-18.386 -14.434)" fill="#424142"/>
      <path id="Trazado_47681" data-name="Trazado 47681" d="M114.823,44.461a1.459,1.459,0,0,0,1.142.52c.592,0,.943-.293.943-.7,0-.454-.482-.585-1-.716-.585-.147-1.236-.3-1.236-.988,0-.541.453-.979,1.258-.979a1.6,1.6,0,0,1,1.265.526l-.212.263a1.287,1.287,0,0,0-1.053-.469c-.549,0-.886.271-.886.636,0,.4.453.513.944.637.607.154,1.288.322,1.288,1.075,0,.57-.447,1.039-1.325,1.039a1.713,1.713,0,0,1-1.361-.556Z" transform="translate(-17.771 -14.434)" fill="#424142"/>
      <rect id="Rectángulo_7951" data-name="Rectángulo 7951" width="0.417" height="4.88" transform="translate(105.033 25.902)" fill="#424142"/>
      <path id="Trazado_47682" data-name="Trazado 47682" d="M126.845,42.83c0-.688-.343-.892-.855-.892a1.537,1.537,0,0,0-1.149.607v2.67h-.381V41.681h.381v.534a1.791,1.791,0,0,1,1.273-.622c.716,0,1.111.351,1.111,1.15v2.471h-.381Z" transform="translate(-16.494 -14.434)" fill="#424142"/>
      <path id="Trazado_47683" data-name="Trazado 47683" d="M129.079,44.461a1.458,1.458,0,0,0,1.141.52c.593,0,.944-.293.944-.7,0-.454-.482-.585-1-.716-.585-.147-1.237-.3-1.237-.988,0-.541.454-.979,1.258-.979a1.6,1.6,0,0,1,1.266.526l-.212.263a1.287,1.287,0,0,0-1.054-.469c-.549,0-.884.271-.884.636,0,.4.453.513.943.637.608.154,1.288.322,1.288,1.075,0,.57-.446,1.039-1.324,1.039a1.712,1.712,0,0,1-1.361-.556Z" transform="translate(-15.925 -14.434)" fill="#424142"/>
      <path id="Trazado_47684" data-name="Trazado 47684" d="M133.4,44.635v-2.51h-.585v-.343h.585v-.966h.387v.966h.717v.343h-.717v2.451c0,.286.117.482.366.482a.557.557,0,0,0,.4-.167l.146.293a.8.8,0,0,1-.6.219c-.468,0-.695-.285-.695-.768" transform="translate(-15.412 -14.534)" fill="#424142"/>
      <path id="Trazado_47685" data-name="Trazado 47685" d="M136.12,40.915a.3.3,0,0,1,.293-.294.293.293,0,0,1,0,.586.3.3,0,0,1-.293-.293m.1.892h.381V45.34h-.381Z" transform="translate(-14.984 -14.56)" fill="#424142"/>
      <path id="Trazado_47686" data-name="Trazado 47686" d="M138.894,44.635v-2.51h-.585v-.343h.585v-.966h.387v.966H140v.343h-.717v2.451c0,.286.117.482.366.482a.557.557,0,0,0,.4-.167l.146.293a.8.8,0,0,1-.6.219c-.468,0-.695-.285-.695-.768" transform="translate(-14.7 -14.534)" fill="#424142"/>
      <path id="Trazado_47687" data-name="Trazado 47687" d="M144.093,44.685a1.789,1.789,0,0,1-1.272.608c-.725,0-1.113-.337-1.113-1.134V41.671h.381v2.4c0,.687.343.878.856.878a1.526,1.526,0,0,0,1.148-.586V41.671h.381V45.2h-.381Z" transform="translate(-14.26 -14.424)" fill="#424142"/>
      <path id="Trazado_47688" data-name="Trazado 47688" d="M146.5,44.635v-2.51h-.585v-.343h.585v-.966h.389v.966h.716v.343h-.716v2.451c0,.286.116.482.365.482a.555.555,0,0,0,.4-.167l.147.293a.8.8,0,0,1-.6.219c-.468,0-.695-.285-.695-.768" transform="translate(-13.714 -14.534)" fill="#424142"/>
      <path id="Trazado_47689" data-name="Trazado 47689" d="M150.842,41.593a1.7,1.7,0,0,1,1.668,1.874v.1h-2.956a1.376,1.376,0,0,0,1.375,1.4,1.57,1.57,0,0,0,1.165-.489l.2.247a1.814,1.814,0,0,1-1.381.572,1.859,1.859,0,0,1-.067-3.709m-1.288,1.676h2.569a1.3,1.3,0,0,0-1.288-1.346,1.33,1.33,0,0,0-1.281,1.346" transform="translate(-13.298 -14.434)" fill="#424142"/>
    </g>
  </g>
</svg>
